<svg width="153" height="146" viewBox="0 0 153 146" fill="none" xmlns="http://www.w3.org/2000/svg">
<rect width="141" height="134" rx="4" fill="#483D8B"/>
<path d="M16 13H149C150.657 13 152 14.3431 152 16V142C152 143.657 150.657 145 149 145H16C14.3431 145 13 143.657 13 142V16C13 14.3431 14.3431 13 16 13Z" fill="white" stroke="#483D8B" stroke-width="2"/>
<path d="M30.8 110.056C31.4507 110.195 31.9733 110.52 32.368 111.032C32.7627 111.533 32.96 112.109 32.96 112.76C32.96 113.699 32.6293 114.445 31.968 115C31.3173 115.544 30.4053 115.816 29.232 115.816H24V104.584H29.056C30.1973 104.584 31.088 104.845 31.728 105.368C32.3787 105.891 32.704 106.6 32.704 107.496C32.704 108.157 32.528 108.707 32.176 109.144C31.8347 109.581 31.376 109.885 30.8 110.056ZM26.736 109.128H28.528C28.976 109.128 29.3173 109.032 29.552 108.84C29.7973 108.637 29.92 108.344 29.92 107.96C29.92 107.576 29.7973 107.283 29.552 107.08C29.3173 106.877 28.976 106.776 28.528 106.776H26.736V109.128ZM28.752 113.608C29.2107 113.608 29.5627 113.507 29.808 113.304C30.064 113.091 30.192 112.787 30.192 112.392C30.192 111.997 30.0587 111.688 29.792 111.464C29.536 111.24 29.1787 111.128 28.72 111.128H26.736V113.608H28.752Z" fill="#483D8B"/>
<path d="M37.2829 108.376C37.6029 107.885 38.0029 107.501 38.4829 107.224C38.9629 106.936 39.4962 106.792 40.0829 106.792V109.688H39.3309C38.6482 109.688 38.1362 109.837 37.7949 110.136C37.4535 110.424 37.2829 110.936 37.2829 111.672V115.816H34.5469V106.888H37.2829V108.376Z" fill="#483D8B"/>
<path d="M40.8466 111.336C40.8466 110.419 41.0173 109.613 41.3586 108.92C41.7106 108.227 42.1853 107.693 42.7826 107.32C43.38 106.947 44.0466 106.76 44.7826 106.76C45.412 106.76 45.9613 106.888 46.4306 107.144C46.9106 107.4 47.2786 107.736 47.5346 108.152V106.888H50.2706V115.816H47.5346V114.552C47.268 114.968 46.8946 115.304 46.4146 115.56C45.9453 115.816 45.396 115.944 44.7666 115.944C44.0413 115.944 43.38 115.757 42.7826 115.384C42.1853 115 41.7106 114.461 41.3586 113.768C41.0173 113.064 40.8466 112.253 40.8466 111.336ZM47.5346 111.352C47.5346 110.669 47.3426 110.131 46.9586 109.736C46.5853 109.341 46.1266 109.144 45.5826 109.144C45.0386 109.144 44.5746 109.341 44.1906 109.736C43.8173 110.12 43.6306 110.653 43.6306 111.336C43.6306 112.019 43.8173 112.563 44.1906 112.968C44.5746 113.363 45.0386 113.56 45.5826 113.56C46.1266 113.56 46.5853 113.363 46.9586 112.968C47.3426 112.573 47.5346 112.035 47.5346 111.352Z" fill="#483D8B"/>
<path d="M53.626 105.96C53.146 105.96 52.7513 105.821 52.442 105.544C52.1433 105.256 51.994 104.904 51.994 104.488C51.994 104.061 52.1433 103.709 52.442 103.432C52.7513 103.144 53.146 103 53.626 103C54.0953 103 54.4793 103.144 54.778 103.432C55.0873 103.709 55.242 104.061 55.242 104.488C55.242 104.904 55.0873 105.256 54.778 105.544C54.4793 105.821 54.0953 105.96 53.626 105.96ZM54.986 106.888V115.816H52.25V106.888H54.986Z" fill="#483D8B"/>
<path d="M62.4087 106.792C63.4541 106.792 64.2861 107.133 64.9048 107.816C65.5341 108.488 65.8488 109.416 65.8488 110.6V115.816H63.1287V110.968C63.1287 110.371 62.9741 109.907 62.6647 109.576C62.3554 109.245 61.9394 109.08 61.4167 109.08C60.8941 109.08 60.4781 109.245 60.1688 109.576C59.8594 109.907 59.7048 110.371 59.7048 110.968V115.816H56.9688V106.888H59.7048V108.072C59.9821 107.677 60.3554 107.368 60.8247 107.144C61.2941 106.909 61.8221 106.792 62.4087 106.792Z" fill="#483D8B"/>
<path d="M71.382 115.944C70.6033 115.944 69.91 115.811 69.302 115.544C68.694 115.277 68.214 114.915 67.862 114.456C67.51 113.987 67.3127 113.464 67.27 112.888H69.974C70.006 113.197 70.15 113.448 70.406 113.64C70.662 113.832 70.9767 113.928 71.35 113.928C71.6913 113.928 71.9527 113.864 72.134 113.736C72.326 113.597 72.422 113.421 72.422 113.208C72.422 112.952 72.2887 112.765 72.022 112.648C71.7553 112.52 71.3233 112.381 70.726 112.232C70.086 112.083 69.5527 111.928 69.126 111.768C68.6993 111.597 68.3313 111.336 68.022 110.984C67.7127 110.621 67.558 110.136 67.558 109.528C67.558 109.016 67.6967 108.552 67.974 108.136C68.262 107.709 68.678 107.373 69.222 107.128C69.7767 106.883 70.4327 106.76 71.19 106.76C72.31 106.76 73.19 107.037 73.83 107.592C74.4807 108.147 74.854 108.883 74.95 109.8H72.422C72.3793 109.491 72.2407 109.245 72.006 109.064C71.782 108.883 71.4833 108.792 71.11 108.792C70.79 108.792 70.5447 108.856 70.374 108.984C70.2033 109.101 70.118 109.267 70.118 109.48C70.118 109.736 70.2513 109.928 70.518 110.056C70.7953 110.184 71.222 110.312 71.798 110.44C72.4593 110.611 72.998 110.781 73.414 110.952C73.83 111.112 74.1927 111.379 74.502 111.752C74.822 112.115 74.9873 112.605 74.998 113.224C74.998 113.747 74.8487 114.216 74.55 114.632C74.262 115.037 73.8407 115.357 73.286 115.592C72.742 115.827 72.1073 115.944 71.382 115.944Z" fill="#483D8B"/>
<path d="M81.6479 113.496V115.816H80.2559C79.2639 115.816 78.4905 115.576 77.9359 115.096C77.3812 114.605 77.1039 113.811 77.1039 112.712V109.16H76.0159V106.888H77.1039V104.712H79.8399V106.888H81.6319V109.16H79.8399V112.744C79.8399 113.011 79.9039 113.203 80.0319 113.32C80.1599 113.437 80.3732 113.496 80.6719 113.496H81.6479Z" fill="#483D8B"/>
<path d="M87.2359 115.944C86.3612 115.944 85.5719 115.757 84.8679 115.384C84.1745 115.011 83.6252 114.477 83.2199 113.784C82.8252 113.091 82.6279 112.28 82.6279 111.352C82.6279 110.435 82.8305 109.629 83.2359 108.936C83.6412 108.232 84.1959 107.693 84.8999 107.32C85.6039 106.947 86.3932 106.76 87.2679 106.76C88.1425 106.76 88.9319 106.947 89.6359 107.32C90.3399 107.693 90.8945 108.232 91.2999 108.936C91.7052 109.629 91.9079 110.435 91.9079 111.352C91.9079 112.269 91.6999 113.08 91.2839 113.784C90.8785 114.477 90.3185 115.011 89.6039 115.384C88.8999 115.757 88.1105 115.944 87.2359 115.944ZM87.2359 113.576C87.7585 113.576 88.2012 113.384 88.5639 113C88.9372 112.616 89.1239 112.067 89.1239 111.352C89.1239 110.637 88.9425 110.088 88.5799 109.704C88.2279 109.32 87.7905 109.128 87.2679 109.128C86.7345 109.128 86.2919 109.32 85.9399 109.704C85.5879 110.077 85.4119 110.627 85.4119 111.352C85.4119 112.067 85.5825 112.616 85.9239 113C86.2759 113.384 86.7132 113.576 87.2359 113.576Z" fill="#483D8B"/>
<path d="M96.0954 108.376C96.4154 107.885 96.8154 107.501 97.2954 107.224C97.7754 106.936 98.3087 106.792 98.8954 106.792V109.688H98.1434C97.4607 109.688 96.9487 109.837 96.6074 110.136C96.266 110.424 96.0954 110.936 96.0954 111.672V115.816H93.3594V106.888H96.0954V108.376Z" fill="#483D8B"/>
<path d="M111.595 106.792C112.704 106.792 113.584 107.128 114.235 107.8C114.896 108.472 115.227 109.405 115.227 110.6V115.816H112.507V110.968C112.507 110.392 112.352 109.949 112.043 109.64C111.744 109.32 111.328 109.16 110.795 109.16C110.262 109.16 109.84 109.32 109.531 109.64C109.232 109.949 109.083 110.392 109.083 110.968V115.816H106.363V110.968C106.363 110.392 106.208 109.949 105.899 109.64C105.6 109.32 105.184 109.16 104.651 109.16C104.118 109.16 103.696 109.32 103.387 109.64C103.088 109.949 102.939 110.392 102.939 110.968V115.816H100.203V106.888H102.939V108.008C103.216 107.635 103.579 107.341 104.027 107.128C104.475 106.904 104.982 106.792 105.547 106.792C106.219 106.792 106.816 106.936 107.339 107.224C107.872 107.512 108.288 107.923 108.587 108.456C108.896 107.965 109.318 107.565 109.851 107.256C110.384 106.947 110.966 106.792 111.595 106.792Z" fill="#483D8B"/>
<path d="M118.517 105.96C118.037 105.96 117.642 105.821 117.333 105.544C117.034 105.256 116.885 104.904 116.885 104.488C116.885 104.061 117.034 103.709 117.333 103.432C117.642 103.144 118.037 103 118.517 103C118.986 103 119.37 103.144 119.669 103.432C119.978 103.709 120.133 104.061 120.133 104.488C120.133 104.904 119.978 105.256 119.669 105.544C119.37 105.821 118.986 105.96 118.517 105.96ZM119.877 106.888V115.816H117.141V106.888H119.877Z" fill="#483D8B"/>
<path d="M127.299 106.792C128.345 106.792 129.177 107.133 129.795 107.816C130.425 108.488 130.739 109.416 130.739 110.6V115.816H128.019V110.968C128.019 110.371 127.865 109.907 127.555 109.576C127.246 109.245 126.83 109.08 126.307 109.08C125.785 109.08 125.369 109.245 125.059 109.576C124.75 109.907 124.595 110.371 124.595 110.968V115.816H121.859V106.888H124.595V108.072C124.873 107.677 125.246 107.368 125.715 107.144C126.185 106.909 126.713 106.792 127.299 106.792Z" fill="#483D8B"/>
<path d="M136.033 106.76C136.662 106.76 137.211 106.888 137.681 107.144C138.161 107.4 138.529 107.736 138.785 108.152V106.888H141.521V115.8C141.521 116.621 141.355 117.363 141.025 118.024C140.705 118.696 140.209 119.229 139.537 119.624C138.875 120.019 138.049 120.216 137.057 120.216C135.734 120.216 134.662 119.901 133.841 119.272C133.019 118.653 132.55 117.811 132.433 116.744H135.137C135.222 117.085 135.425 117.352 135.745 117.544C136.065 117.747 136.459 117.848 136.929 117.848C137.494 117.848 137.942 117.683 138.273 117.352C138.614 117.032 138.785 116.515 138.785 115.8V114.536C138.518 114.952 138.15 115.293 137.681 115.56C137.211 115.816 136.662 115.944 136.033 115.944C135.297 115.944 134.63 115.757 134.033 115.384C133.435 115 132.961 114.461 132.609 113.768C132.267 113.064 132.097 112.253 132.097 111.336C132.097 110.419 132.267 109.613 132.609 108.92C132.961 108.227 133.435 107.693 134.033 107.32C134.63 106.947 135.297 106.76 136.033 106.76ZM138.785 111.352C138.785 110.669 138.593 110.131 138.209 109.736C137.835 109.341 137.377 109.144 136.833 109.144C136.289 109.144 135.825 109.341 135.441 109.736C135.067 110.12 134.881 110.653 134.881 111.336C134.881 112.019 135.067 112.563 135.441 112.968C135.825 113.363 136.289 113.56 136.833 113.56C137.377 113.56 137.835 113.363 138.209 112.968C138.593 112.573 138.785 112.035 138.785 111.352Z" fill="#483D8B"/>
<path d="M76.4436 70.5782L76.3821 70.5654L76.3298 70.6002L73.15 72.7197V69.456V69.3845L73.0945 69.3395C70.6837 67.3834 69.15 64.7806 69.15 61.5C69.15 56.3553 73.8161 52.15 80 52.15C82.445 52.15 84.9098 53.1966 86.7636 54.8934C88.6168 56.5896 89.85 58.9265 89.85 61.5C89.85 66.6624 85.9939 70.85 80 70.85C79.1094 70.85 77.259 70.7479 76.4436 70.5782ZM70.85 76V76.2602L71.0752 76.1298L76.666 72.8925C77.476 73.0184 79.1917 73.15 80 73.15C87.2641 73.15 92.15 67.7386 92.15 61.375C92.15 54.9977 86.0468 49.85 80 49.85C72.7475 49.85 66.85 54.992 66.85 61.375C66.85 65.0317 68.2356 68.1463 70.85 70.398V76ZM94.045 59.0237L93.7762 58.8L93.7993 59.149C93.8051 59.2356 93.8118 59.3202 93.8185 59.4037C93.8345 59.6046 93.85 59.7991 93.85 60C93.85 60.6264 93.7889 61.2418 93.7005 61.8525L93.6908 61.9197L93.7349 61.9714C95.0604 63.5234 95.85 65.4317 95.85 67.5C95.85 70.7704 93.896 73.6519 90.9264 75.3253L90.85 75.3683V75.456V78.7197L87.6702 76.6002L87.6179 76.5654L87.5564 76.5782C86.7342 76.7493 85.8815 76.85 85 76.85C83.7214 76.85 82.7489 76.6582 81.8658 76.3098C80.98 75.9604 80.1779 75.4511 79.239 74.8054L79.1951 74.7752L79.1419 74.7795C78.6001 74.8232 78.0542 74.85 77.5 74.85C77.1676 74.85 76.8411 74.8302 76.509 74.8101C76.4492 74.8064 76.3891 74.8028 76.3288 74.7993L75.9281 74.7758L76.2152 75.0563C78.615 77.4017 81.0986 78.9 85 78.9C85.8086 78.9 86.5972 78.8287 87.3639 78.706L92.9214 82.1277L93.15 82.2685V82V76.4078C96.1872 74.2998 98.15 71.0457 98.15 67.375C98.15 64.0805 96.5644 61.1202 94.045 59.0237ZM85.5 63.15C86.4118 63.15 87.15 62.4118 87.15 61.5C87.15 60.5892 86.4119 59.85 85.5 59.85C84.5881 59.85 83.85 60.5892 83.85 61.5C83.85 62.4118 84.5882 63.15 85.5 63.15ZM73.5 63.15C74.4118 63.15 75.15 62.4118 75.15 61.5C75.15 60.5892 74.4119 59.85 73.5 59.85C72.5881 59.85 71.85 60.5892 71.85 61.5C71.85 62.4118 72.5882 63.15 73.5 63.15ZM79.5 63.15C80.4118 63.15 81.15 62.4118 81.15 61.5C81.15 60.5892 80.4119 59.85 79.5 59.85C78.5881 59.85 77.85 60.5892 77.85 61.5C77.85 62.4118 78.5882 63.15 79.5 63.15Z" fill="#483D8B" stroke="#483D8B" stroke-width="0.3"/>
</svg>
