<svg width="153" height="146" viewBox="0 0 153 146" fill="none" xmlns="http://www.w3.org/2000/svg">
<rect width="141" height="134" rx="4" fill="#483D8B"/>
<rect x="13" y="13" width="139" height="132" rx="3" fill="white" stroke="#483D8B" stroke-width="2"/>
<path d="M41.552 108.384C41.552 109.035 41.4027 109.632 41.104 110.176C40.8053 110.709 40.3467 111.141 39.728 111.472C39.1093 111.803 38.3413 111.968 37.424 111.968H35.728V116H32.992V104.768H37.424C38.32 104.768 39.0773 104.923 39.696 105.232C40.3147 105.541 40.7787 105.968 41.088 106.512C41.3973 107.056 41.552 107.68 41.552 108.384ZM37.216 109.792C37.7387 109.792 38.128 109.669 38.384 109.424C38.64 109.179 38.768 108.832 38.768 108.384C38.768 107.936 38.64 107.589 38.384 107.344C38.128 107.099 37.7387 106.976 37.216 106.976H35.728V109.792H37.216Z" fill="#483D8B"/>
<path d="M45.7124 108.56C46.0324 108.069 46.4324 107.685 46.9124 107.408C47.3924 107.12 47.9257 106.976 48.5124 106.976V109.872H47.7604C47.0777 109.872 46.5657 110.021 46.2244 110.32C45.883 110.608 45.7124 111.12 45.7124 111.856V116H42.9764V107.072H45.7124V108.56Z" fill="#483D8B"/>
<path d="M53.8841 116.128C53.0095 116.128 52.2201 115.941 51.5161 115.568C50.8228 115.195 50.2735 114.661 49.8681 113.968C49.4735 113.275 49.2761 112.464 49.2761 111.536C49.2761 110.619 49.4788 109.813 49.8841 109.12C50.2895 108.416 50.8441 107.877 51.5481 107.504C52.2521 107.131 53.0415 106.944 53.9161 106.944C54.7908 106.944 55.5801 107.131 56.2841 107.504C56.9881 107.877 57.5428 108.416 57.9481 109.12C58.3535 109.813 58.5561 110.619 58.5561 111.536C58.5561 112.453 58.3481 113.264 57.9321 113.968C57.5268 114.661 56.9668 115.195 56.2521 115.568C55.5481 115.941 54.7588 116.128 53.8841 116.128ZM53.8841 113.76C54.4068 113.76 54.8495 113.568 55.2121 113.184C55.5855 112.8 55.7721 112.251 55.7721 111.536C55.7721 110.821 55.5908 110.272 55.2281 109.888C54.8761 109.504 54.4388 109.312 53.9161 109.312C53.3828 109.312 52.9401 109.504 52.5881 109.888C52.2361 110.261 52.0601 110.811 52.0601 111.536C52.0601 112.251 52.2308 112.8 52.5721 113.184C52.9241 113.568 53.3615 113.76 53.8841 113.76Z" fill="#483D8B"/>
<path d="M64.9836 113.68V116H63.5916C62.5996 116 61.8263 115.76 61.2716 115.28C60.717 114.789 60.4396 113.995 60.4396 112.896V109.344H59.3516V107.072H60.4396V104.896H63.1756V107.072H64.9676V109.344H63.1756V112.928C63.1756 113.195 63.2396 113.387 63.3676 113.504C63.4956 113.621 63.709 113.68 64.0076 113.68H64.9836Z" fill="#483D8B"/>
<path d="M70.5716 116.128C69.697 116.128 68.9076 115.941 68.2036 115.568C67.5103 115.195 66.961 114.661 66.5556 113.968C66.161 113.275 65.9636 112.464 65.9636 111.536C65.9636 110.619 66.1663 109.813 66.5716 109.12C66.977 108.416 67.5316 107.877 68.2356 107.504C68.9396 107.131 69.729 106.944 70.6036 106.944C71.4783 106.944 72.2676 107.131 72.9716 107.504C73.6756 107.877 74.2303 108.416 74.6356 109.12C75.041 109.813 75.2436 110.619 75.2436 111.536C75.2436 112.453 75.0356 113.264 74.6196 113.968C74.2143 114.661 73.6543 115.195 72.9396 115.568C72.2356 115.941 71.4463 116.128 70.5716 116.128ZM70.5716 113.76C71.0943 113.76 71.537 113.568 71.8996 113.184C72.273 112.8 72.4596 112.251 72.4596 111.536C72.4596 110.821 72.2783 110.272 71.9156 109.888C71.5636 109.504 71.1263 109.312 70.6036 109.312C70.0703 109.312 69.6276 109.504 69.2756 109.888C68.9236 110.261 68.7476 110.811 68.7476 111.536C68.7476 112.251 68.9183 112.8 69.2596 113.184C69.6116 113.568 70.049 113.76 70.5716 113.76Z" fill="#483D8B"/>
<path d="M81.6711 113.68V116H80.2791C79.2871 116 78.5138 115.76 77.9591 115.28C77.4045 114.789 77.1271 113.995 77.1271 112.896V109.344H76.0391V107.072H77.1271V104.896H79.8631V107.072H81.6551V109.344H79.8631V112.928C79.8631 113.195 79.9271 113.387 80.0551 113.504C80.1831 113.621 80.3965 113.68 80.6951 113.68H81.6711Z" fill="#483D8B"/>
<path d="M92.3151 107.072L86.7151 120.24H83.7711L85.8191 115.696L82.1871 107.072H85.2431L87.3071 112.656L89.3551 107.072H92.3151Z" fill="#483D8B"/>
<path d="M96.0405 108.336C96.3072 107.92 96.6752 107.584 97.1445 107.328C97.6138 107.072 98.1632 106.944 98.7925 106.944C99.5285 106.944 100.195 107.131 100.793 107.504C101.39 107.877 101.859 108.411 102.201 109.104C102.553 109.797 102.729 110.603 102.729 111.52C102.729 112.437 102.553 113.248 102.201 113.952C101.859 114.645 101.39 115.184 100.793 115.568C100.195 115.941 99.5285 116.128 98.7925 116.128C98.1738 116.128 97.6245 116 97.1445 115.744C96.6752 115.488 96.3072 115.157 96.0405 114.752V120.256H93.3045V107.072H96.0405V108.336ZM99.9445 111.52C99.9445 110.837 99.7525 110.304 99.3685 109.92C98.9952 109.525 98.5312 109.328 97.9765 109.328C97.4325 109.328 96.9685 109.525 96.5845 109.92C96.2112 110.315 96.0245 110.853 96.0245 111.536C96.0245 112.219 96.2112 112.757 96.5845 113.152C96.9685 113.547 97.4325 113.744 97.9765 113.744C98.5205 113.744 98.9845 113.547 99.3685 113.152C99.7525 112.747 99.9445 112.203 99.9445 111.52Z" fill="#483D8B"/>
<path d="M105.54 106.144C105.06 106.144 104.665 106.005 104.356 105.728C104.057 105.44 103.908 105.088 103.908 104.672C103.908 104.245 104.057 103.893 104.356 103.616C104.665 103.328 105.06 103.184 105.54 103.184C106.009 103.184 106.393 103.328 106.692 103.616C107.001 103.893 107.156 104.245 107.156 104.672C107.156 105.088 107.001 105.44 106.692 105.728C106.393 106.005 106.009 106.144 105.54 106.144ZM106.9 107.072V116H104.164V107.072H106.9Z" fill="#483D8B"/>
<path d="M114.323 106.976C115.368 106.976 116.2 107.317 116.819 108C117.448 108.672 117.763 109.6 117.763 110.784V116H115.043V111.152C115.043 110.555 114.888 110.091 114.579 109.76C114.269 109.429 113.853 109.264 113.331 109.264C112.808 109.264 112.392 109.429 112.083 109.76C111.773 110.091 111.619 110.555 111.619 111.152V116H108.883V107.072H111.619V108.256C111.896 107.861 112.269 107.552 112.739 107.328C113.208 107.093 113.736 106.976 114.323 106.976Z" fill="#483D8B"/>
<path d="M123.056 106.944C123.685 106.944 124.235 107.072 124.704 107.328C125.184 107.584 125.552 107.92 125.808 108.336V107.072H128.544V115.984C128.544 116.805 128.379 117.547 128.048 118.208C127.728 118.88 127.232 119.413 126.56 119.808C125.899 120.203 125.072 120.4 124.08 120.4C122.757 120.4 121.685 120.085 120.864 119.456C120.043 118.837 119.573 117.995 119.456 116.928H122.16C122.245 117.269 122.448 117.536 122.768 117.728C123.088 117.931 123.483 118.032 123.952 118.032C124.517 118.032 124.965 117.867 125.296 117.536C125.637 117.216 125.808 116.699 125.808 115.984V114.72C125.541 115.136 125.173 115.477 124.704 115.744C124.235 116 123.685 116.128 123.056 116.128C122.32 116.128 121.653 115.941 121.056 115.568C120.459 115.184 119.984 114.645 119.632 113.952C119.291 113.248 119.12 112.437 119.12 111.52C119.12 110.603 119.291 109.797 119.632 109.104C119.984 108.411 120.459 107.877 121.056 107.504C121.653 107.131 122.32 106.944 123.056 106.944ZM125.808 111.536C125.808 110.853 125.616 110.315 125.232 109.92C124.859 109.525 124.4 109.328 123.856 109.328C123.312 109.328 122.848 109.525 122.464 109.92C122.091 110.304 121.904 110.837 121.904 111.52C121.904 112.203 122.091 112.747 122.464 113.152C122.848 113.547 123.312 113.744 123.856 113.744C124.4 113.744 124.859 113.547 125.232 113.152C125.616 112.757 125.808 112.219 125.808 111.536Z" fill="#483D8B"/>
<path d="M85.6773 66.3243L85.5135 66.2362L85.382 66.3676L72.7495 78.9951C71.9922 79.7516 70.7644 79.7517 70.0058 78.995C69.2498 78.2375 69.2498 77.0124 70.006 76.2549C70.0061 76.2549 70.0061 76.2548 70.0062 76.2547L82.6407 63.6274L82.7724 63.4959L82.6841 63.332C81.1723 60.5252 81.57 56.9662 83.9381 54.5988C85.2128 53.3251 86.838 52.6497 88.5085 52.5094C86.7943 54.7501 86.9501 57.9626 89.0023 60.0136C91.0536 62.0637 94.2675 62.2192 96.5092 60.506C96.3692 62.1752 95.6945 63.799 94.4199 65.0726C92.0508 67.4401 88.4875 67.8374 85.6773 66.3243ZM98.315 55.6315L98.1551 55.2845L97.9012 55.57C97.5059 56.0143 96.9149 56.5496 96.0997 57.288C95.8257 57.5361 95.5264 57.8072 95.2007 58.1055L95.2006 58.1053L95.1929 58.113C94.5561 58.7492 93.7974 59.0583 93.0483 59.0583C92.2991 59.0583 91.5404 58.7492 90.9037 58.113C90.2663 57.4757 89.9568 56.7174 89.9568 55.969C89.9568 55.2207 90.2663 54.4626 90.9037 53.8259L90.9037 53.8258C91.5328 53.1969 92.1848 52.5107 92.6767 51.9812C92.9226 51.7164 93.1292 51.4901 93.2733 51.3292C93.3451 51.2489 93.4024 51.1839 93.4415 51.138C93.4607 51.1156 93.4775 51.0953 93.49 51.0794C93.4954 51.0725 93.5043 51.0609 93.5126 51.048L93.5128 51.0477C93.5157 51.0433 93.527 51.0259 93.5364 51.0025L93.5366 51.002C93.5401 50.9934 93.5549 50.9567 93.5549 50.9075C93.5548 50.8801 93.5502 50.8311 93.5197 50.7797C93.4922 50.7336 93.4526 50.7004 93.4093 50.6804C89.6773 48.9589 85.1135 49.6236 82.0368 52.6982C79.2716 55.461 78.4567 59.423 79.5648 62.9019L68.1058 74.3553C66.2981 76.1611 66.2981 79.09 68.1058 80.8958C69.9133 82.7014 72.8432 82.7014 74.6507 80.8958L74.6508 80.8957L86.1087 69.4432C89.5922 70.553 93.5561 69.736 96.3213 66.9733L96.3213 66.9732C99.3946 63.901 100.031 59.357 98.315 55.6315Z" fill="#483D8B" stroke="#483D8B" stroke-width="0.5"/>
</svg>
