<svg width="153" height="146" viewBox="0 0 153 146" fill="none" xmlns="http://www.w3.org/2000/svg">
<rect width="141" height="134" rx="4" fill="#483D8B"/>
<rect x="13" y="13" width="139" height="132" rx="3" fill="white" stroke="#483D8B" stroke-width="2"/>
<path d="M48.72 116L46.384 111.76H45.728V116H42.992V104.768H47.584C48.4693 104.768 49.2213 104.923 49.84 105.232C50.4693 105.541 50.9387 105.968 51.248 106.512C51.5573 107.045 51.712 107.643 51.712 108.304C51.712 109.051 51.4987 109.717 51.072 110.304C50.656 110.891 50.0373 111.307 49.216 111.552L51.808 116H48.72ZM45.728 109.824H47.424C47.9253 109.824 48.2987 109.701 48.544 109.456C48.8 109.211 48.928 108.864 48.928 108.416C48.928 107.989 48.8 107.653 48.544 107.408C48.2987 107.163 47.9253 107.04 47.424 107.04H45.728V109.824Z" fill="#483D8B"/>
<path d="M61.8455 111.392C61.8455 111.648 61.8295 111.915 61.7975 112.192H55.6055C55.6482 112.747 55.8242 113.173 56.1335 113.472C56.4535 113.76 56.8428 113.904 57.3015 113.904C57.9842 113.904 58.4588 113.616 58.7255 113.04H61.6375C61.4882 113.627 61.2162 114.155 60.8215 114.624C60.4375 115.093 59.9522 115.461 59.3655 115.728C58.7788 115.995 58.1228 116.128 57.3975 116.128C56.5228 116.128 55.7442 115.941 55.0615 115.568C54.3788 115.195 53.8455 114.661 53.4615 113.968C53.0775 113.275 52.8855 112.464 52.8855 111.536C52.8855 110.608 53.0722 109.797 53.4455 109.104C53.8295 108.411 54.3628 107.877 55.0455 107.504C55.7282 107.131 56.5122 106.944 57.3975 106.944C58.2615 106.944 59.0295 107.125 59.7015 107.488C60.3735 107.851 60.8962 108.368 61.2695 109.04C61.6535 109.712 61.8455 110.496 61.8455 111.392ZM59.0455 110.672C59.0455 110.203 58.8855 109.829 58.5655 109.552C58.2455 109.275 57.8455 109.136 57.3655 109.136C56.9068 109.136 56.5175 109.269 56.1975 109.536C55.8882 109.803 55.6962 110.181 55.6215 110.672H59.0455Z" fill="#483D8B"/>
<path d="M66.9209 116.128C66.1422 116.128 65.4489 115.995 64.8409 115.728C64.2329 115.461 63.7529 115.099 63.4009 114.64C63.0489 114.171 62.8515 113.648 62.8089 113.072H65.5129C65.5449 113.381 65.6889 113.632 65.9449 113.824C66.2009 114.016 66.5155 114.112 66.8889 114.112C67.2302 114.112 67.4915 114.048 67.6729 113.92C67.8649 113.781 67.9609 113.605 67.9609 113.392C67.9609 113.136 67.8275 112.949 67.5609 112.832C67.2942 112.704 66.8622 112.565 66.2649 112.416C65.6249 112.267 65.0915 112.112 64.6649 111.952C64.2382 111.781 63.8702 111.52 63.5609 111.168C63.2515 110.805 63.0969 110.32 63.0969 109.712C63.0969 109.2 63.2355 108.736 63.5129 108.32C63.8009 107.893 64.2169 107.557 64.7609 107.312C65.3155 107.067 65.9715 106.944 66.7289 106.944C67.8489 106.944 68.7289 107.221 69.3689 107.776C70.0195 108.331 70.3929 109.067 70.4889 109.984H67.9609C67.9182 109.675 67.7795 109.429 67.5449 109.248C67.3209 109.067 67.0222 108.976 66.6489 108.976C66.3289 108.976 66.0835 109.04 65.9129 109.168C65.7422 109.285 65.6569 109.451 65.6569 109.664C65.6569 109.92 65.7902 110.112 66.0569 110.24C66.3342 110.368 66.7609 110.496 67.3369 110.624C67.9982 110.795 68.5369 110.965 68.9529 111.136C69.3689 111.296 69.7315 111.563 70.0409 111.936C70.3609 112.299 70.5262 112.789 70.5369 113.408C70.5369 113.931 70.3875 114.4 70.0889 114.816C69.8009 115.221 69.3795 115.541 68.8249 115.776C68.2809 116.011 67.6462 116.128 66.9209 116.128Z" fill="#483D8B"/>
<path d="M80.6268 111.392C80.6268 111.648 80.6108 111.915 80.5788 112.192H74.3868C74.4294 112.747 74.6054 113.173 74.9148 113.472C75.2348 113.76 75.6241 113.904 76.0828 113.904C76.7654 113.904 77.2401 113.616 77.5068 113.04H80.4188C80.2694 113.627 79.9974 114.155 79.6028 114.624C79.2188 115.093 78.7334 115.461 78.1468 115.728C77.5601 115.995 76.9041 116.128 76.1788 116.128C75.3041 116.128 74.5254 115.941 73.8428 115.568C73.1601 115.195 72.6268 114.661 72.2428 113.968C71.8588 113.275 71.6668 112.464 71.6668 111.536C71.6668 110.608 71.8534 109.797 72.2268 109.104C72.6108 108.411 73.1441 107.877 73.8268 107.504C74.5094 107.131 75.2934 106.944 76.1788 106.944C77.0428 106.944 77.8108 107.125 78.4828 107.488C79.1548 107.851 79.6774 108.368 80.0508 109.04C80.4348 109.712 80.6268 110.496 80.6268 111.392ZM77.8268 110.672C77.8268 110.203 77.6668 109.829 77.3468 109.552C77.0268 109.275 76.6268 109.136 76.1468 109.136C75.6881 109.136 75.2988 109.269 74.9788 109.536C74.6694 109.803 74.4774 110.181 74.4028 110.672H77.8268Z" fill="#483D8B"/>
<path d="M81.5261 111.52C81.5261 110.603 81.6968 109.797 82.0381 109.104C82.3901 108.411 82.8648 107.877 83.4621 107.504C84.0595 107.131 84.7261 106.944 85.4621 106.944C86.0915 106.944 86.6408 107.072 87.1101 107.328C87.5901 107.584 87.9581 107.92 88.2141 108.336V107.072H90.9501V116H88.2141V114.736C87.9475 115.152 87.5741 115.488 87.0941 115.744C86.6248 116 86.0755 116.128 85.4461 116.128C84.7208 116.128 84.0595 115.941 83.4621 115.568C82.8648 115.184 82.3901 114.645 82.0381 113.952C81.6968 113.248 81.5261 112.437 81.5261 111.52ZM88.2141 111.536C88.2141 110.853 88.0221 110.315 87.6381 109.92C87.2648 109.525 86.8061 109.328 86.2621 109.328C85.7181 109.328 85.2541 109.525 84.8701 109.92C84.4968 110.304 84.3101 110.837 84.3101 111.52C84.3101 112.203 84.4968 112.747 84.8701 113.152C85.2541 113.547 85.7181 113.744 86.2621 113.744C86.8061 113.744 87.2648 113.547 87.6381 113.152C88.0221 112.757 88.2141 112.219 88.2141 111.536Z" fill="#483D8B"/>
<path d="M95.6655 108.56C95.9855 108.069 96.3855 107.685 96.8655 107.408C97.3455 107.12 97.8788 106.976 98.4655 106.976V109.872H97.7135C97.0308 109.872 96.5188 110.021 96.1775 110.32C95.8362 110.608 95.6655 111.12 95.6655 111.856V116H92.9295V107.072H95.6655V108.56Z" fill="#483D8B"/>
<path d="M99.2293 111.536C99.2293 110.608 99.4159 109.797 99.7893 109.104C100.173 108.411 100.701 107.877 101.373 107.504C102.056 107.131 102.835 106.944 103.709 106.944C104.829 106.944 105.763 107.237 106.509 107.824C107.267 108.411 107.763 109.237 107.997 110.304H105.085C104.84 109.621 104.365 109.28 103.661 109.28C103.16 109.28 102.76 109.477 102.461 109.872C102.163 110.256 102.013 110.811 102.013 111.536C102.013 112.261 102.163 112.821 102.461 113.216C102.76 113.6 103.16 113.792 103.661 113.792C104.365 113.792 104.84 113.451 105.085 112.768H107.997C107.763 113.813 107.267 114.635 106.509 115.232C105.752 115.829 104.819 116.128 103.709 116.128C102.835 116.128 102.056 115.941 101.373 115.568C100.701 115.195 100.173 114.661 99.7893 113.968C99.4159 113.275 99.2293 112.464 99.2293 111.536Z" fill="#483D8B"/>
<path d="M114.949 106.976C115.973 106.976 116.794 107.317 117.413 108C118.031 108.672 118.341 109.6 118.341 110.784V116H115.621V111.152C115.621 110.555 115.466 110.091 115.157 109.76C114.847 109.429 114.431 109.264 113.909 109.264C113.386 109.264 112.97 109.429 112.661 109.76C112.351 110.091 112.197 110.555 112.197 111.152V116H109.461V104.16H112.197V108.272C112.474 107.877 112.853 107.563 113.333 107.328C113.813 107.093 114.351 106.976 114.949 106.976Z" fill="#483D8B"/>
<path d="M81.9954 78.7917H70.7986C70.3744 78.7917 69.9675 78.6231 69.6676 78.3232C69.3676 78.0232 69.1991 77.6163 69.1991 77.1921V54.7986C69.1991 54.3744 69.3676 53.9675 69.6676 53.6676C69.9675 53.3676 70.3744 53.1991 70.7986 53.1991H78.7963V57.9977C78.7963 59.2704 79.3019 60.4909 80.2018 61.3908C81.1017 62.2907 82.3222 62.7963 83.5949 62.7963H88.3935V64.3958C88.3935 64.8201 88.562 65.2269 88.862 65.5269C89.162 65.8268 89.5688 65.9954 89.993 65.9954C90.4173 65.9954 90.8241 65.8268 91.1241 65.5269C91.4241 65.2269 91.5926 64.8201 91.5926 64.3958V61.1968C91.5926 61.1968 91.5926 61.1968 91.5926 61.1008C91.5759 60.9538 91.5438 60.8091 91.4966 60.6689V60.5249C91.4197 60.3605 91.3171 60.2093 91.1927 60.0771V60.0771L81.5955 50.4799C81.4633 50.3554 81.3121 50.2529 81.1476 50.1759C81.0999 50.1692 81.0514 50.1692 81.0037 50.1759C80.8412 50.0828 80.6617 50.0229 80.4758 50H70.7986C69.5259 50 68.3054 50.5056 67.4055 51.4055C66.5056 52.3054 66 53.5259 66 54.7986V77.1921C66 78.4648 66.5056 79.6853 67.4055 80.5852C68.3054 81.4852 69.5259 81.9907 70.7986 81.9907H81.9954C82.4196 81.9907 82.8264 81.8222 83.1264 81.5222C83.4264 81.2223 83.5949 80.8154 83.5949 80.3912C83.5949 79.967 83.4264 79.5601 83.1264 79.2601C82.8264 78.9602 82.4196 78.7917 81.9954 78.7917ZM81.9954 55.4544L86.1382 59.5972H83.5949C83.1707 59.5972 82.7638 59.4287 82.4639 59.1287C82.1639 58.8288 81.9954 58.4219 81.9954 57.9977V55.4544ZM73.9977 59.5972C73.5735 59.5972 73.1666 59.7657 72.8666 60.0657C72.5667 60.3657 72.3981 60.7725 72.3981 61.1968C72.3981 61.621 72.5667 62.0278 72.8666 62.3278C73.1666 62.6278 73.5735 62.7963 73.9977 62.7963H75.5972C76.0214 62.7963 76.4283 62.6278 76.7283 62.3278C77.0282 62.0278 77.1968 61.621 77.1968 61.1968C77.1968 60.7725 77.0282 60.3657 76.7283 60.0657C76.4283 59.7657 76.0214 59.5972 75.5972 59.5972H73.9977ZM97.5269 79.2555L95.6554 77.4001C96.2536 76.356 96.493 75.1446 96.337 73.9514C96.181 72.7583 95.6381 71.6492 94.7917 70.794V70.794C94.0127 69.9873 93.0089 69.4339 91.9109 69.2059C90.813 68.9778 89.6718 69.0858 88.6361 69.5156C87.6003 69.9454 86.7181 70.6772 86.1042 71.6157C85.4903 72.5541 85.1733 73.6556 85.1944 74.7768C85.1889 75.7416 85.4358 76.6911 85.9104 77.5311C86.3851 78.3711 87.0711 79.0724 87.9004 79.5655C88.7298 80.0586 89.6736 80.3263 90.6383 80.342C91.603 80.3578 92.5551 80.1211 93.4001 79.6554L95.2555 81.5269C95.4042 81.6768 95.5811 81.7958 95.776 81.877C95.971 81.9582 96.18 82 96.3912 82C96.6023 82 96.8114 81.9582 97.0063 81.877C97.2013 81.7958 97.3782 81.6768 97.5269 81.5269C97.6768 81.3782 97.7958 81.2013 97.877 81.0063C97.9582 80.8114 98 80.6023 98 80.3912C98 80.18 97.9582 79.971 97.877 79.776C97.7958 79.5811 97.6768 79.4042 97.5269 79.2555V79.2555ZM92.4563 76.4563C91.9995 76.886 91.396 77.1252 90.7688 77.1252C90.1417 77.1252 89.5382 76.886 89.0813 76.4563C88.641 76.0081 88.394 75.4051 88.3935 74.7768C88.3902 74.4613 88.4509 74.1484 88.5718 73.857C88.6928 73.5656 88.8715 73.3017 89.0973 73.0813C89.5238 72.6572 90.0956 72.4113 90.6968 72.3935C91.0202 72.3736 91.3442 72.4208 91.6485 72.5321C91.9528 72.6433 92.2308 72.8163 92.4651 73.0401C92.6994 73.2638 92.8849 73.5336 93.01 73.8325C93.1351 74.1314 93.1971 74.4529 93.1921 74.7768C93.1789 75.412 92.9143 76.016 92.4563 76.4563V76.4563ZM83.5949 65.9954H73.9977C73.5735 65.9954 73.1666 66.1639 72.8666 66.4639C72.5667 66.7638 72.3981 67.1707 72.3981 67.5949C72.3981 68.0191 72.5667 68.426 72.8666 68.7259C73.1666 69.0259 73.5735 69.1944 73.9977 69.1944H83.5949C84.0191 69.1944 84.426 69.0259 84.7259 68.7259C85.0259 68.426 85.1944 68.0191 85.1944 67.5949C85.1944 67.1707 85.0259 66.7638 84.7259 66.4639C84.426 66.1639 84.0191 65.9954 83.5949 65.9954ZM80.3958 75.5926C80.8201 75.5926 81.2269 75.4241 81.5269 75.1241C81.8268 74.8241 81.9954 74.4173 81.9954 73.993C81.9954 73.5688 81.8268 73.162 81.5269 72.862C81.2269 72.562 80.8201 72.3935 80.3958 72.3935H73.9977C73.5735 72.3935 73.1666 72.562 72.8666 72.862C72.5667 73.162 72.3981 73.5688 72.3981 73.993C72.3981 74.4173 72.5667 74.8241 72.8666 75.1241C73.1666 75.4241 73.5735 75.5926 73.9977 75.5926H80.3958Z" fill="#483D8B"/>
</svg>
