<svg width="153" height="146" viewBox="0 0 153 146" fill="none" xmlns="http://www.w3.org/2000/svg">
<rect width="141" height="134" rx="4" fill="#483D8B"/>
<rect x="13" y="13" width="139" height="132" rx="3" fill="white" stroke="#483D8B" stroke-width="2"/>
<path d="M46.68 104.768V111.488C46.68 112.16 46.8453 112.677 47.176 113.04C47.5067 113.403 47.992 113.584 48.632 113.584C49.272 113.584 49.7627 113.403 50.104 113.04C50.4453 112.677 50.616 112.16 50.616 111.488V104.768H53.352V111.472C53.352 112.475 53.1387 113.323 52.712 114.016C52.2853 114.709 51.7093 115.232 50.984 115.584C50.2693 115.936 49.4693 116.112 48.584 116.112C47.6987 116.112 46.904 115.941 46.2 115.6C45.5067 115.248 44.9573 114.725 44.552 114.032C44.1467 113.328 43.944 112.475 43.944 111.472V104.768H46.68Z" fill="#483D8B"/>
<path d="M58.0093 104.768V116H55.2732V104.768H58.0093Z" fill="#483D8B"/>
<path d="M62.8386 111.52C62.8386 110.603 63.0093 109.797 63.3506 109.104C63.7026 108.411 64.1773 107.877 64.7746 107.504C65.372 107.131 66.0386 106.944 66.7746 106.944C67.3613 106.944 67.8946 107.067 68.3746 107.312C68.8653 107.557 69.2493 107.888 69.5266 108.304V104.16H72.2626V116H69.5266V114.72C69.2706 115.147 68.9026 115.488 68.4226 115.744C67.9533 116 67.404 116.128 66.7746 116.128C66.0386 116.128 65.372 115.941 64.7746 115.568C64.1773 115.184 63.7026 114.645 63.3506 113.952C63.0093 113.248 62.8386 112.437 62.8386 111.52ZM69.5266 111.536C69.5266 110.853 69.3346 110.315 68.9506 109.92C68.5773 109.525 68.1186 109.328 67.5746 109.328C67.0306 109.328 66.5666 109.525 66.1826 109.92C65.8093 110.304 65.6226 110.837 65.6226 111.52C65.6226 112.203 65.8093 112.747 66.1826 113.152C66.5666 113.547 67.0306 113.744 67.5746 113.744C68.1186 113.744 68.5773 113.547 68.9506 113.152C69.3346 112.757 69.5266 112.219 69.5266 111.536Z" fill="#483D8B"/>
<path d="M82.658 111.392C82.658 111.648 82.642 111.915 82.61 112.192H76.418C76.4607 112.747 76.6367 113.173 76.946 113.472C77.266 113.76 77.6553 113.904 78.114 113.904C78.7967 113.904 79.2713 113.616 79.538 113.04H82.45C82.3007 113.627 82.0287 114.155 81.634 114.624C81.25 115.093 80.7647 115.461 80.178 115.728C79.5913 115.995 78.9353 116.128 78.21 116.128C77.3353 116.128 76.5567 115.941 75.874 115.568C75.1913 115.195 74.658 114.661 74.274 113.968C73.89 113.275 73.698 112.464 73.698 111.536C73.698 110.608 73.8847 109.797 74.258 109.104C74.642 108.411 75.1753 107.877 75.858 107.504C76.5407 107.131 77.3247 106.944 78.21 106.944C79.074 106.944 79.842 107.125 80.514 107.488C81.186 107.851 81.7087 108.368 82.082 109.04C82.466 109.712 82.658 110.496 82.658 111.392ZM79.858 110.672C79.858 110.203 79.698 109.829 79.378 109.552C79.058 109.275 78.658 109.136 78.178 109.136C77.7193 109.136 77.33 109.269 77.01 109.536C76.7007 109.803 76.5087 110.181 76.434 110.672H79.858Z" fill="#483D8B"/>
<path d="M87.7334 116.128C86.9547 116.128 86.2614 115.995 85.6534 115.728C85.0454 115.461 84.5654 115.099 84.2134 114.64C83.8614 114.171 83.664 113.648 83.6214 113.072H86.3254C86.3574 113.381 86.5014 113.632 86.7574 113.824C87.0134 114.016 87.328 114.112 87.7014 114.112C88.0427 114.112 88.304 114.048 88.4854 113.92C88.6774 113.781 88.7734 113.605 88.7734 113.392C88.7734 113.136 88.64 112.949 88.3734 112.832C88.1067 112.704 87.6747 112.565 87.0774 112.416C86.4374 112.267 85.904 112.112 85.4774 111.952C85.0507 111.781 84.6827 111.52 84.3734 111.168C84.064 110.805 83.9094 110.32 83.9094 109.712C83.9094 109.2 84.048 108.736 84.3254 108.32C84.6134 107.893 85.0294 107.557 85.5734 107.312C86.128 107.067 86.784 106.944 87.5414 106.944C88.6614 106.944 89.5414 107.221 90.1814 107.776C90.832 108.331 91.2054 109.067 91.3014 109.984H88.7734C88.7307 109.675 88.592 109.429 88.3574 109.248C88.1334 109.067 87.8347 108.976 87.4614 108.976C87.1414 108.976 86.896 109.04 86.7254 109.168C86.5547 109.285 86.4694 109.451 86.4694 109.664C86.4694 109.92 86.6027 110.112 86.8694 110.24C87.1467 110.368 87.5734 110.496 88.1494 110.624C88.8107 110.795 89.3494 110.965 89.7654 111.136C90.1814 111.296 90.544 111.563 90.8534 111.936C91.1734 112.299 91.3387 112.789 91.3494 113.408C91.3494 113.931 91.2 114.4 90.9014 114.816C90.6134 115.221 90.192 115.541 89.6374 115.776C89.0934 116.011 88.4587 116.128 87.7334 116.128Z" fill="#483D8B"/>
<path d="M94.3993 106.144C93.9193 106.144 93.5246 106.005 93.2152 105.728C92.9166 105.44 92.7673 105.088 92.7673 104.672C92.7673 104.245 92.9166 103.893 93.2152 103.616C93.5246 103.328 93.9193 103.184 94.3993 103.184C94.8686 103.184 95.2526 103.328 95.5513 103.616C95.8606 103.893 96.0153 104.245 96.0153 104.672C96.0153 105.088 95.8606 105.44 95.5513 105.728C95.2526 106.005 94.8686 106.144 94.3993 106.144ZM95.7593 107.072V116H93.0233V107.072H95.7593Z" fill="#483D8B"/>
<path d="M101.134 106.944C101.763 106.944 102.313 107.072 102.782 107.328C103.262 107.584 103.63 107.92 103.886 108.336V107.072H106.622V115.984C106.622 116.805 106.457 117.547 106.126 118.208C105.806 118.88 105.31 119.413 104.638 119.808C103.977 120.203 103.15 120.4 102.158 120.4C100.835 120.4 99.7633 120.085 98.942 119.456C98.1207 118.837 97.6513 117.995 97.534 116.928H100.238C100.323 117.269 100.526 117.536 100.846 117.728C101.166 117.931 101.561 118.032 102.03 118.032C102.595 118.032 103.043 117.867 103.374 117.536C103.715 117.216 103.886 116.699 103.886 115.984V114.72C103.619 115.136 103.251 115.477 102.782 115.744C102.313 116 101.763 116.128 101.134 116.128C100.398 116.128 99.7313 115.941 99.134 115.568C98.5367 115.184 98.062 114.645 97.71 113.952C97.3687 113.248 97.198 112.437 97.198 111.52C97.198 110.603 97.3687 109.797 97.71 109.104C98.062 108.411 98.5367 107.877 99.134 107.504C99.7313 107.131 100.398 106.944 101.134 106.944ZM103.886 111.536C103.886 110.853 103.694 110.315 103.31 109.92C102.937 109.525 102.478 109.328 101.934 109.328C101.39 109.328 100.926 109.525 100.542 109.92C100.169 110.304 99.982 110.837 99.982 111.52C99.982 112.203 100.169 112.747 100.542 113.152C100.926 113.547 101.39 113.744 101.934 113.744C102.478 113.744 102.937 113.547 103.31 113.152C103.694 112.757 103.886 112.219 103.886 111.536Z" fill="#483D8B"/>
<path d="M114.041 106.976C115.087 106.976 115.919 107.317 116.537 108C117.167 108.672 117.481 109.6 117.481 110.784V116H114.761V111.152C114.761 110.555 114.607 110.091 114.297 109.76C113.988 109.429 113.572 109.264 113.049 109.264C112.527 109.264 112.111 109.429 111.801 109.76C111.492 110.091 111.337 110.555 111.337 111.152V116H108.601V107.072H111.337V108.256C111.615 107.861 111.988 107.552 112.457 107.328C112.927 107.093 113.455 106.976 114.041 106.976Z" fill="#483D8B"/>
<path d="M79 51.298H79.15V51.448V70.0011L98.893 49.8949L99.15 49.6331V50V82V82.15H99H67H66.85V82V51.448V51.298H67H79ZM72.85 55.5216V55.3716H73H76.85V53.6348H69.15V79.8132H69.5152L71.2206 78.0764H71H70.85V77.9264V75.8896V75.7396H71H73.5152L75.2206 74.0028H73H72.85V73.8528V71.816V71.666H73H76.85V69.9292H73H72.85V69.7792V67.7424V67.5924H73H76.85V65.8556H71H70.85V65.7056V63.6688V63.5188H71H76.85V61.782H73H72.85V61.632V59.5952V59.4452H73H76.85V57.7084H73H72.85V57.5584V55.5216ZM92.893 66.1893L93.15 65.9275V66.2944V75.8896V76.0396H93H83.5781H83.2206L83.4711 75.7845L92.893 66.1893ZM96.85 55.2997L72.7794 79.8132H96.85V55.2997ZM88.7794 73.7028H90.85V71.5941L88.7794 73.7028Z" fill="#483D8B" stroke="#483D8B" stroke-width="0.3"/>
</svg>
