<svg width="275" height="182" viewBox="0 0 275 182" fill="none" xmlns="http://www.w3.org/2000/svg">
<path d="M112.893 30.6772C113.724 50.1976 107.697 54.5586 100.423 56.116C77.9778 44.4868 69.7685 38.8107 68.7293 38.9837C33.8139 26.5239 12.0953 40.0221 2.74322 61.3076C-7.64944 95.0531 30.8007 105.436 47.9466 111.147C61.6633 115.716 59.2039 123.088 56.2596 126.203C36.308 144.062 38.2477 157.525 41.7116 162.025C52.103 186.114 90.0318 166.178 107.697 153.199C118.92 142.4 128.653 148.7 132.117 153.199C148.744 186.944 179.398 186.944 197.584 173.965C212.132 163.582 209.88 143.335 206.936 134.509C211.092 109.07 232.915 113.743 237.591 114.781C242.267 115.819 275 121.011 275 99.2064C275 77.4016 246.423 79.9974 244.865 79.9974C243.306 79.9974 232.915 79.4783 214.21 69.6142C199.246 61.723 207.975 51.0975 214.21 46.7711C225.294 40.1951 242.89 23.9281 224.601 11.4682C201.74 -4.10658 184.594 16.6598 179.398 24.4472C174.203 32.2347 153.939 36.3879 151.861 19.7748C149.783 3.16167 139.911 -0.472454 132.117 0.0467065C124.324 0.565867 111.854 6.27663 112.893 30.6772Z" fill="#D9F4F8" fill-opacity="0.5"/>
<rect x="37.3887" y="34.3778" width="41.4556" height="11.1222" rx="5.56111" fill="#9ACD7F"/>
<rect x="37.3887" y="49.5444" width="41.4556" height="11.1222" rx="5.56111" fill="#5DB33D"/>
<rect x="37.3887" y="64.7111" width="41.4556" height="11.1222" rx="5.56111" fill="#9ACD7F"/>
<path fill-rule="evenodd" clip-rule="evenodd" d="M133.525 29.5767C132.881 27.8333 130.415 27.8333 129.772 29.5767L126.477 38.5044C126.073 39.5985 124.823 40.1165 123.764 39.6283L115.121 35.6453C113.433 34.8675 111.69 36.6111 112.467 38.2988L116.45 46.9415C116.939 48.0007 116.421 49.2511 115.327 49.6549L106.399 52.9498C104.655 53.5932 104.655 56.059 106.399 56.7024L115.327 59.9973C116.421 60.4011 116.939 61.6515 116.45 62.7107L112.467 71.3534C111.69 73.0411 113.433 74.7846 115.121 74.0069L123.764 70.0238C124.823 69.5357 126.073 70.0537 126.477 71.1478L129.772 80.0755C130.415 81.8189 132.881 81.8189 133.525 80.0755L136.819 71.1478C137.223 70.0537 138.474 69.5357 139.533 70.0238L148.176 74.0069C149.863 74.7846 151.607 73.0411 150.829 71.3534L146.846 62.7107C146.358 61.6515 146.876 60.4011 147.97 59.9973L156.898 56.7024C158.641 56.059 158.641 53.5932 156.898 52.9498L147.97 49.6549C146.876 49.2511 146.358 48.0007 146.846 46.9415L150.829 38.2988C151.607 36.6111 149.863 34.8675 148.176 35.6453L139.533 39.6283C138.474 40.1165 137.223 39.5985 136.819 38.5044L133.525 29.5767ZM132.154 59.8816C135.225 59.8816 137.715 57.3919 137.715 54.3205C137.715 51.2492 135.225 48.7594 132.154 48.7594C129.082 48.7594 126.593 51.2492 126.593 54.3205C126.593 57.3919 129.082 59.8816 132.154 59.8816Z" fill="#33BFCC"/>
<path fill-rule="evenodd" clip-rule="evenodd" d="M132.154 64.9372C138.017 64.9372 142.77 60.1839 142.77 54.3205C142.77 48.4571 138.017 43.7039 132.154 43.7039C126.29 43.7039 121.537 48.4571 121.537 54.3205C121.537 60.1839 126.29 64.9372 132.154 64.9372ZM132.154 59.8816C135.225 59.8816 137.715 57.3918 137.715 54.3205C137.715 51.2492 135.225 48.7594 132.154 48.7594C129.083 48.7594 126.593 51.2492 126.593 54.3205C126.593 57.3918 129.083 59.8816 132.154 59.8816Z" fill="#00AFBE"/>
<path fill-rule="evenodd" clip-rule="evenodd" d="M207.034 66.4847C214.258 63.7238 219.389 56.7277 219.389 48.5333C219.389 37.9233 210.787 29.3222 200.177 29.3222C189.567 29.3222 180.966 37.9233 180.966 48.5333C180.966 56.7276 186.097 63.7236 193.32 66.4846C194.751 64.2047 197.287 62.6889 200.177 62.6889C203.067 62.6889 205.604 64.2047 207.034 66.4847Z" fill="#F2D68C"/>
<rect x="193.1" y="67.7444" width="14.1556" height="5.05556" rx="2.52778" fill="#E7C361"/>
<rect x="193.1" y="74.8222" width="14.1556" height="5.05556" rx="2.52778" fill="#E7C361"/>
<path d="M193.1 50.7075C193.1 49.8532 194.102 49.3923 194.75 49.9483L200.177 54.6L205.604 49.9483C206.253 49.3923 207.255 49.8532 207.255 50.7075V59.6555H193.1V50.7075Z" fill="#E7C361"/>
<path d="M55.864 106.38C56.6267 105.012 58.5951 105.012 59.3578 106.38L80.4713 144.256C81.2145 145.589 80.2507 147.23 78.7244 147.23H36.4974C34.9712 147.23 34.0074 145.589 34.7505 144.256L55.864 106.38Z" fill="#FFB79E"/>
<path d="M53.736 121.467C53.6448 120.305 54.5637 119.311 55.7299 119.311H59.4928C60.659 119.311 61.5778 120.305 61.4867 121.467L60.4522 134.656C60.3706 135.697 59.5023 136.5 58.4584 136.5H56.7643C55.7204 136.5 54.8521 135.697 54.7704 134.656L53.736 121.467Z" fill="#E85421"/>
<rect x="54.5776" y="139.533" width="6.06667" height="4.04444" rx="2" fill="#E85421"/>
<rect x="107.155" y="109.2" width="49.5444" height="38.4222" rx="2" fill="#97999B"/>
<path d="M133.201 131.403C132.462 132.014 131.393 132.014 130.654 131.403L107.757 112.489C106.311 111.295 107.156 108.947 109.03 108.947H154.824C156.699 108.947 157.544 111.295 156.098 112.489L133.201 131.403Z" fill="#F3F3F3"/>
<path d="M221.411 127.906C221.411 139.912 211.678 149.644 199.672 149.644C187.666 149.644 177.933 139.912 177.933 127.906C177.933 115.899 187.666 106.167 199.672 106.167C211.678 106.167 221.411 115.899 221.411 127.906ZM185.551 127.906C185.551 135.704 191.873 142.026 199.672 142.026C207.471 142.026 213.793 135.704 213.793 127.906C213.793 120.107 207.471 113.785 199.672 113.785C191.873 113.785 185.551 120.107 185.551 127.906Z" fill="#E89BFF"/>
<circle cx="199.673" cy="127.906" r="7.2463" fill="#D913FE"/>
</svg>
