<svg xmlns="http://www.w3.org/2000/svg" xmlns:xlink="http://www.w3.org/1999/xlink" viewBox="0 0 379.5 309"><defs><style>.cls-1{opacity:0.75;isolation:isolate;fill:url(#linear-gradient);}.cls-2{fill:#3c5f63;}.cls-3,.cls-9{fill:#fff;}.cls-4{fill:#3d4d50;}.cls-5{fill:#e6f5f6;}.cls-6{fill:#fee5d4;}.cls-7{fill:#fdcdab;}.cls-8{fill:#36bfcd;}.cls-9{stroke:#8bd3db;stroke-miterlimit:10;}.cls-10{fill:#8bd3db;}.cls-11{fill:#e6e7e7;}.cls-12{fill:#3ac1cd;}.cls-13{fill:#b1e0e7;}</style><linearGradient id="linear-gradient" x1="-26.64" y1="191.68" x2="387.62" y2="100.05" gradientUnits="userSpaceOnUse"><stop offset="0" stop-color="#8bd3db"/><stop offset="0.13" stop-color="#35c0cc"/><stop offset="1" stop-color="#00a7b5"/></linearGradient></defs><g id="Layer_2" data-name="Layer 2"><g id="Cover_graphic" data-name="Cover graphic"><path class="cls-1" d="M121.49,124.91c-63.15-11.8-96,27.43-104.47,48.52-13.41,24.73-8.94,55.66,13.84,55.66s40.36-30.46,71,15.21,88,37.1,116.25,5.23,67.16,13.79,107.22-9.51,93.48-102.27,10.22-195S217.33,29.78,213.79,41.2,200.44,139.65,121.49,124.91Z"/><path class="cls-2" d="M204.4,88.4H146.84a15.72,15.72,0,0,0-15.73,15.71V236.52a15.72,15.72,0,0,0,15.73,15.71H204.4a15.71,15.71,0,0,0,15.72-15.71V104.11A15.72,15.72,0,0,0,204.4,88.4Z"/><path class="cls-3" d="M201.8,93.4H149.43A13.59,13.59,0,0,0,135.83,107V233.27a13.59,13.59,0,0,0,13.6,13.58H201.8a13.59,13.59,0,0,0,13.6-13.58V107A13.59,13.59,0,0,0,201.8,93.4Z"/><path class="cls-4" d="M187.35,99.4H164.12a8.2,8.2,0,0,1-3.8-.83,8,8,0,0,1-3-2.49l-1.91-2.86h40.34l-1.39,2.43A8.09,8.09,0,0,1,187.35,99.4Z"/><path class="cls-5" d="M201.3,115.07H150.23a4,4,0,0,0-4,4v21.32a4,4,0,0,0,4,4H201.3a4,4,0,0,0,4-4V119.1A4,4,0,0,0,201.3,115.07Z"/><path class="cls-5" d="M201.3,152H150.23a4,4,0,0,0-4,4v73a4,4,0,0,0,4,4H201.3a4,4,0,0,0,4-4V156A4,4,0,0,0,201.3,152Z"/><path class="cls-6" d="M126.31,150.18h13.82a5.24,5.24,0,0,1,5.24,4.41c.41,3-1,7.37-8.73,12.73a5.4,5.4,0,0,1-3,.94H123.38a5.31,5.31,0,0,1-2.15-.45,5.31,5.31,0,0,1-3.16-5.37,20.91,20.91,0,0,1,3.9-10,5.25,5.25,0,0,1,1.89-1.67A5.37,5.37,0,0,1,126.31,150.18Z"/><path class="cls-6" d="M125.12,169.75h13.82a5.24,5.24,0,0,1,5.24,4.41c.42,3-1,7.36-8.73,12.72a5.32,5.32,0,0,1-3,.94H122.19a5.28,5.28,0,0,1-2.15-.45,5.44,5.44,0,0,1-1.79-1.28,5.3,5.3,0,0,1-1.37-4.08,21.1,21.1,0,0,1,3.89-10,5.3,5.3,0,0,1,4.35-2.27Z"/><path class="cls-6" d="M124.6,189.15h11.66a5.28,5.28,0,0,1,5.19,4,5.39,5.39,0,0,1,.06,2.33c-.55,2.46-2.57,5.54-7.67,9.09a5.25,5.25,0,0,1-3,.94h-8.6a5.2,5.2,0,0,1-2.2-.46,5.34,5.34,0,0,1-2.9-3.29,5.26,5.26,0,0,1-.19-2.23,19.07,19.07,0,0,1,3.19-7.94,5.26,5.26,0,0,1,1.92-1.77A5.35,5.35,0,0,1,124.6,189.15Z"/><path class="cls-6" d="M126.49,207.78h11.66a5.27,5.27,0,0,1,5.24,6.32c-.54,2.45-2.57,5.53-7.67,9.09a5.31,5.31,0,0,1-3,.93h-8.6a5.2,5.2,0,0,1-2.2-.46,5.28,5.28,0,0,1-1.81-1.33,5.35,5.35,0,0,1-1.28-4.2,19.3,19.3,0,0,1,3.19-8,5.35,5.35,0,0,1,4.46-2.38Z"/><path class="cls-7" d="M212,265.45a4,4,0,0,1-2.37-1.35,59.6,59.6,0,0,1-7.87-11.88h-52s11.16,10.9,24.28,13.3H212Z"/><path class="cls-6" d="M226.77,184.93l-11.59-16.84a4.12,4.12,0,0,0-1.89-1.13l-23-9.85a4.19,4.19,0,0,0-2,0,4.15,4.15,0,0,0-2.91,2.7,4.15,4.15,0,0,0-.13,2c1.41,7.43,13.07,19.72,16.31,20.85a4.13,4.13,0,0,1,1.41.84,4,4,0,0,1,1,1.31l4.7,10.24a4,4,0,0,1,.34,2.22,4,4,0,0,1-.89,2.07c-17,20.85-12.58,40.5-6.34,52.88a60.25,60.25,0,0,0,7.87,11.87,4,4,0,0,0,2.37,1.35,3.81,3.81,0,0,0,.75.07H174v28A15.5,15.5,0,0,0,189.5,309h30.19a15.52,15.52,0,0,0,15.51-15.49V205.67A30.08,30.08,0,0,0,226.77,184.93Z"/><path class="cls-3" d="M279.64,72.21c0,12.28-12.32,22.22-27.5,22.22a32.29,32.29,0,0,1-14.35-3.27c-1.13-.56-9.6,6.38-9.6,6.38s4.12-9.89,3.13-10.82a19.87,19.87,0,0,1-6.7-14.52C224.62,60,236.94,50,252.14,50S279.64,60,279.64,72.21Z"/><path class="cls-8" d="M240.87,74.71A2.75,2.75,0,1,0,238.12,72,2.75,2.75,0,0,0,240.87,74.71Z"/><path class="cls-8" d="M252.54,74.71A2.75,2.75,0,1,0,249.79,72,2.75,2.75,0,0,0,252.54,74.71Z"/><path class="cls-8" d="M264.21,74.71A2.75,2.75,0,1,0,261.46,72,2.75,2.75,0,0,0,264.21,74.71Z"/><path class="cls-9" d="M95.65,184.69H8.47a8,8,0,0,1-3-.55A7.87,7.87,0,0,1,1.15,180a7.91,7.91,0,0,1-.65-3V92.77a7.84,7.84,0,0,1,8-7.7H95.65a7.85,7.85,0,0,1,7.94,7.7V109l12,7.49-12,6.61V177a7.84,7.84,0,0,1-7.94,7.7Z"/><path class="cls-10" d="M88.46,118.09H15.39v23.4H88.46Z"/><path class="cls-11" d="M88.46,150.6H15.39v2.52H88.46Z"/><path class="cls-11" d="M88.46,158.46H15.39V161H88.46Z"/><path class="cls-11" d="M88.46,167.06H15.39v2.52H88.46Z"/><path class="cls-12" d="M58.94,107.81h2.13A7.23,7.23,0,0,1,58,111a11.82,11.82,0,0,1-5.8,1.32,13.31,13.31,0,0,1-5.7-1.12,7.46,7.46,0,0,1-3.56-3.28,9.85,9.85,0,0,1-1.17-4.72,10.77,10.77,0,0,1,1.33-5.24,8.78,8.78,0,0,1,3.63-3.64A11.16,11.16,0,0,1,52,93.09a9.84,9.84,0,0,1,4.49,1,6.93,6.93,0,0,1,3,2.77,7.78,7.78,0,0,1,1,3.94,7.38,7.38,0,0,1-1.6,4.64,6.19,6.19,0,0,1-2.2,1.93,6.09,6.09,0,0,1-2.84.67,2.16,2.16,0,0,1-1.25-.29,1.43,1.43,0,0,1-.57-.85,3.63,3.63,0,0,1-1.24.84,3.77,3.77,0,0,1-1.48.3,3.67,3.67,0,0,1-2.75-1.15,4.32,4.32,0,0,1-.85-1.41,4.28,4.28,0,0,1-.24-1.63,7.46,7.46,0,0,1,1.32-4.28,4.78,4.78,0,0,1,1.74-1.72A4.68,4.68,0,0,1,51,97.19a2.89,2.89,0,0,1,1.5.32,3,3,0,0,1,1.13,1l.24-1.11h2.64L55,104.6a5.25,5.25,0,0,0-.14.87.57.57,0,0,0,.11.38.38.38,0,0,0,.13.09.37.37,0,0,0,.15,0,2.2,2.2,0,0,0,1.23-.55,5.69,5.69,0,0,0,1.65-2,6,6,0,0,0,.62-2.65,5.26,5.26,0,0,0-.44-2.25,5.34,5.34,0,0,0-1.33-1.86,7.06,7.06,0,0,0-5-1.69A9,9,0,0,0,47.38,96a7,7,0,0,0-2.83,3.11,9.55,9.55,0,0,0-1,4.17,7.27,7.27,0,0,0,1.06,3.83,6.22,6.22,0,0,0,3,2.52,12.93,12.93,0,0,0,8.51.13A6.44,6.44,0,0,0,58.94,107.81Zm-10.83-4.1a2.81,2.81,0,0,0,.52,1.86,1.54,1.54,0,0,0,.57.44,1.56,1.56,0,0,0,.7.16,2.15,2.15,0,0,0,1.08-.28,2.48,2.48,0,0,0,.74-.63,5.12,5.12,0,0,0,.92-1.78,7,7,0,0,0,.38-2.17,2.56,2.56,0,0,0-.52-1.73,1.66,1.66,0,0,0-.59-.46,1.68,1.68,0,0,0-.73-.15,2.3,2.3,0,0,0-1.59.67,4,4,0,0,0-1.1,1.89A7.68,7.68,0,0,0,48.11,103.71Z"/><path class="cls-3" d="M255.13,200.65h92.39c4.41,0,8-2.25,8-5.07V161.9c0-2.8-3.57-5.06-8-5.06H255.13c-4.4,0-8,2.24-8,5.06v10.69l-12,4.9,12,4.35v13.74C247.16,198.38,250.75,200.65,255.13,200.65Z"/><path class="cls-12" d="M277.8,184.1,272,186.86a3.15,3.15,0,0,0,1.83,1.53,3.21,3.21,0,0,0,4-4.29Zm3.09-6.07-.57.28a5.41,5.41,0,0,1-1.94-.95,5.48,5.48,0,0,1-1.41-1.62l-1.61-3.38a6.35,6.35,0,1,0-11.45,5.48l1.61,3.37a5.26,5.26,0,0,1,.38,2.11,5.32,5.32,0,0,1-.48,2.08l-.57.28a1.24,1.24,0,0,0-.39.29,1.51,1.51,0,0,0-.25.42,1.32,1.32,0,0,0-.06.48,1.06,1.06,0,0,0,.12.47,1.24,1.24,0,0,0,.29.39,1.12,1.12,0,0,0,.42.25,1.24,1.24,0,0,0,.95,0l16-7.67a1.27,1.27,0,0,0,.39-.3,1.16,1.16,0,0,0,.25-.41,1.33,1.33,0,0,0,.07-.48,1.31,1.31,0,0,0-.12-.48,1.33,1.33,0,0,0-.29-.38,1.3,1.3,0,0,0-.42-.25,1.15,1.15,0,0,0-.48-.07,1.21,1.21,0,0,0-.47.12Z"/><path class="cls-13" d="M324,172.76H292.43v3.09H324Z"/><path class="cls-13" d="M341.8,182.55H292.43v3.09H341.8Z"/></g></g></svg>