<svg width="277" height="174" viewBox="0 0 277 174" fill="none" xmlns="http://www.w3.org/2000/svg">
<rect width="277" height="174" fill="#3C4C4F"/>
<rect x="14" y="16" width="122" height="39" rx="2" fill="white"/>
<rect x="26" y="33" width="19" height="4" rx="2" fill="#3C4C4F"/>
<rect x="52" y="33" width="19" height="4" rx="2" fill="#3C4C4F"/>
<rect x="78" y="33" width="19" height="4" rx="2" fill="#3C4C4F"/>
<rect x="104" y="33" width="19" height="4" rx="2" fill="#3C4C4F"/>
<path fill-rule="evenodd" clip-rule="evenodd" d="M263 18C263 16.8954 262.105 16 261 16H153C151.895 16 151 16.8954 151 18V53C151 54.1046 151.895 55 153 55H222C223.105 55 224 55.8954 224 57V89C224 90.1046 224.895 91 226 91H261C262.105 91 263 90.1046 263 89V55V46V18Z" fill="#F5A635"/>
<path d="M167 32C165.895 32 165 32.8954 165 34C165 35.1046 165.895 36 167 36V32ZM244 34H246V32H244V34ZM244 83L255.547 63H232.453L244 83ZM167 36H244V32H167V36ZM242 34V65H246V34H242Z" fill="#3C4C4F"/>
<circle cx="30.753" cy="131.247" r="16.753" fill="#27AAE1"/>
<circle cx="30.753" cy="131.247" r="14.253" stroke="#E85421" stroke-width="5"/>
<path fill-rule="evenodd" clip-rule="evenodd" d="M37.8479 141.399L20.5544 123.565L23.6582 120.555L40.9516 138.389L37.8479 141.399Z" fill="#E85421"/>
<circle cx="30.753" cy="87.753" r="16.753" fill="#3B8F8E"/>
<path d="M26.798 86.2056C26.6256 85.4619 26.2045 84.9422 25.5346 84.6467C25.1602 84.4841 24.744 84.4028 24.2859 84.4028C23.4091 84.4028 22.6875 84.7353 22.1211 85.4003C21.5595 86.0603 21.2788 87.0553 21.2788 88.3853C21.2788 89.7251 21.5842 90.6733 22.195 91.2299C22.8057 91.7865 23.5003 92.0648 24.2785 92.0648C25.042 92.0648 25.6676 91.8456 26.1552 91.4072C26.6429 90.9639 26.9433 90.3851 27.0566 89.6709H24.5371V87.8533H29.0737V93.6976H27.5664L27.3374 92.3381C26.899 92.8553 26.5049 93.2198 26.1552 93.4316C25.5543 93.8011 24.8154 93.9858 23.9387 93.9858C22.4954 93.9858 21.3133 93.4858 20.3922 92.4859C19.4316 91.4811 18.9514 90.1068 18.9514 88.3631C18.9514 86.5997 19.4366 85.186 20.4069 84.1221C21.3773 83.0581 22.6604 82.5261 24.2564 82.5261C25.6405 82.5261 26.7512 82.8783 27.5886 83.5827C28.4309 84.2822 28.9136 85.1565 29.0368 86.2056H26.798Z" fill="white"/>
<path d="M36.0706 92.0722C36.9721 92.0722 37.6863 91.7397 38.2133 91.0747C38.7453 90.4097 39.0113 89.464 39.0113 88.2375C39.0113 87.0159 38.7453 86.0726 38.2133 85.4077C37.6863 84.7378 36.9721 84.4028 36.0706 84.4028C35.1692 84.4028 34.4501 84.7353 33.9132 85.4003C33.3763 86.0653 33.1078 87.011 33.1078 88.2375C33.1078 89.464 33.3763 90.4097 33.9132 91.0747C34.4501 91.7397 35.1692 92.0722 36.0706 92.0722ZM41.287 88.2375C41.287 90.193 40.7377 91.6904 39.6393 92.7297C38.8167 93.577 37.6272 94.0006 36.0706 94.0006C34.5141 94.0006 33.3246 93.577 32.502 92.7297C31.3986 91.6904 30.8469 90.193 30.8469 88.2375C30.8469 86.2426 31.3986 84.7452 32.502 83.7453C33.3246 82.898 34.5141 82.4744 36.0706 82.4744C37.6272 82.4744 38.8167 82.898 39.6393 83.7453C40.7377 84.7452 41.287 86.2426 41.287 88.2375Z" fill="white"/>
<circle cx="74.247" cy="131.247" r="16.753" fill="white"/>
<circle cx="74.247" cy="131.247" r="14.253" stroke="#E85421" stroke-width="5"/>
<path d="M68.6085 133.904C68.6085 134.332 68.6774 134.687 68.8153 134.968C69.0715 135.485 69.537 135.743 70.2118 135.743C70.6255 135.743 70.9851 135.603 71.2905 135.322C71.6008 135.037 71.756 134.628 71.756 134.096C71.756 133.391 71.4703 132.921 70.8989 132.685C70.5738 132.552 70.0615 132.485 69.3621 132.485V130.978C70.0468 130.968 70.5246 130.902 70.7955 130.778C71.2634 130.571 71.4974 130.153 71.4974 129.522C71.4974 129.113 71.3767 128.781 71.1353 128.525C70.8989 128.269 70.564 128.141 70.1305 128.141C69.633 128.141 69.266 128.298 69.0296 128.614C68.7981 128.929 68.6873 129.35 68.6971 129.877H66.7318C66.7515 129.345 66.8426 128.84 67.0052 128.362C67.1776 127.944 67.4485 127.557 67.8179 127.202C68.0937 126.951 68.4213 126.759 68.8006 126.626C69.1798 126.493 69.6453 126.427 70.197 126.427C71.2215 126.427 72.0466 126.693 72.6722 127.224C73.3027 127.752 73.6179 128.461 73.6179 129.352C73.6179 129.983 73.4307 130.515 73.0564 130.948C72.8199 131.219 72.5737 131.404 72.3175 131.502C72.5096 131.502 72.7855 131.667 73.145 131.997C73.6819 132.495 73.9504 133.175 73.9504 134.037C73.9504 134.943 73.6351 135.741 73.0047 136.431C72.3791 137.115 71.4506 137.458 70.2192 137.458C68.7021 137.458 67.648 136.963 67.0569 135.973C66.7466 135.445 66.5742 134.756 66.5397 133.904H68.6085Z" fill="black"/>
<path d="M77.1866 131.938C77.1866 133.17 77.2875 134.113 77.4895 134.768C77.6915 135.418 78.1052 135.743 78.7308 135.743C79.3563 135.743 79.7652 135.418 79.9573 134.768C80.1543 134.113 80.2528 133.17 80.2528 131.938C80.2528 130.648 80.1543 129.692 79.9573 129.072C79.7652 128.451 79.3563 128.141 78.7308 128.141C78.1052 128.141 77.6915 128.451 77.4895 129.072C77.2875 129.692 77.1866 130.648 77.1866 131.938ZM78.7308 126.404C80.0952 126.404 81.0508 126.885 81.5975 127.845C82.1492 128.806 82.4251 130.17 82.4251 131.938C82.4251 133.707 82.1492 135.069 81.5975 136.024C81.0508 136.98 80.0952 137.458 78.7308 137.458C77.3664 137.458 76.4083 136.98 75.8566 136.024C75.3099 135.069 75.0365 133.707 75.0365 131.938C75.0365 130.17 75.3099 128.806 75.8566 127.845C76.4083 126.885 77.3664 126.404 78.7308 126.404Z" fill="black"/>
<circle cx="74.247" cy="87.753" r="16.753" fill="#E85421"/>
<rect x="63.979" y="85.0509" width="20.5359" height="6.48503" rx="2" fill="white"/>
<path d="M123 75C123 69.4772 127.477 65 133 65H150C155.523 65 160 69.4772 160 75V141C160 148.18 154.18 154 147 154H136C128.82 154 123 148.18 123 141V75Z" fill="#267873"/>
<path d="M126 132V99C127 102.119 129 109.737 129 115.254C129 120.77 127 128.716 126 132Z" fill="white"/>
<path d="M157 132V99C156 102.119 154 109.737 154 115.254C154 120.77 156 128.716 157 132Z" fill="white"/>
<rect x="133.206" y="69.5711" width="8" height="4" rx="2" transform="rotate(130 133.206 69.5711)" fill="white"/>
<rect x="155.142" y="75.6995" width="8" height="4" rx="2" transform="rotate(-130 155.142 75.6995)" fill="white"/>
<path d="M127.025 89.8492C127.588 86.4739 130.508 84 133.93 84H149.07C152.492 84 155.412 86.4739 155.975 89.8492L157 96H126L127.025 89.8492Z" fill="white"/>
<path d="M131 131H153L157 144C157 144 154.5 146.5 142 146.5C129.5 146.5 127 144 127 144L131 131Z" fill="white"/>
<path d="M174 83.5C174 73.2827 182.283 65 192.5 65V65C202.717 65 211 73.2827 211 83.5V141C211 148.18 205.18 154 198 154H187C179.82 154 174 148.18 174 141V83.5Z" fill="#267873"/>
<path d="M178.025 90.1508C178.588 93.5261 181.508 96 184.93 96H200.07C203.492 96 206.412 93.5261 206.975 90.1508L208 84C208 84 207.5 78 192.5 78C177.5 78 177 84 177 84L178.025 90.1508Z" fill="white"/>
<path d="M180 100L177 97.5V140L180 133.5V100Z" fill="white"/>
<path d="M205 100.5L208 98V140.5L205 134V100.5Z" fill="white"/>
<path d="M179 141H205V141C205 144.866 201.866 148 198 148H186C182.134 148 179 144.866 179 141V141Z" fill="white"/>
<rect x="224" y="103" width="39" height="5" rx="2" fill="white"/>
<rect x="224" y="113" width="39" height="5" rx="2" fill="white"/>
<rect x="224" y="123" width="39" height="5" rx="2" fill="white"/>
<rect x="224" y="133" width="39" height="5" rx="2" fill="white"/>
<rect x="224" y="143" width="39" height="5" rx="2" fill="white"/>
<circle cx="105.5" cy="93.5" r="6.5" fill="#E85421"/>
<circle cx="105.5" cy="111.5" r="6.5" fill="#F5A635"/>
<circle cx="105.5" cy="129.5" r="6.5" fill="#267873"/>
</svg>
