<svg xmlns="http://www.w3.org/2000/svg" viewBox="0 0 365.33 267.87"><defs><style>.cls-1{fill:#483d8b;}.cls-2{fill:#fff;}.cls-3{fill:#ffc994;}.cls-4{fill:#fbb03b;}</style></defs><g id="Layer_2" data-name="Layer 2"><g id="Layer_1-2" data-name="Layer 1"><path class="cls-1" d="M182.66,0C81.78,0,0,58.44,0,130.53c0,36.05,20.45,68.68,53.5,92.3q4.64,3.31,9.59,6.38l.52.32-14,38.34,44.71-23.05c26.17,10.35,56.27,16.24,88.29,16.24,100.88,0,182.67-58.44,182.67-130.53S283.54,0,182.66,0Z"/><path class="cls-2" d="M108.22,82h28.51v32.29h31.15V82h28.64v92.27H167.88V136.9H136.73v37.32H108.22Z"/><path class="cls-2" d="M216.59,103.46h28.58v70.76H216.59Z"/><path class="cls-3" d="M245.17,98.65l-.73-35.28a2.83,2.83,0,0,0-2.82-2.77h-.87V59.3a2.49,2.49,0,0,0-2.49-2.49h-9.53a2.67,2.67,0,0,0-2.67,2.66v2.45h-.7a2.58,2.58,0,0,0-2.58,2.46l-1,19.85-.69-6.67a2.16,2.16,0,0,0-2.14-1.93h-.19a2.16,2.16,0,0,0-2.16,2.15V98.65"/><path class="cls-4" d="M229,98.65l2.85-16,6.67-3.22,2.21-18.8h1a2.72,2.72,0,0,1,2.71,2.67l.74,35.38Z"/></g></g></svg>