<svg xmlns="http://www.w3.org/2000/svg" xmlns:xlink="http://www.w3.org/1999/xlink" viewBox="0 0 440.78 305.24"><defs><style>.cls-1{fill:#fbb03b;}.cls-11,.cls-2{fill:#fde4d3;}.cls-3{fill:#ffe7e1;}.cls-4{clip-path:url(#clip-path);}.cls-5{fill:#f99e43;}.cls-6{fill:#1a1a1a;}.cls-7{fill:#f2f2f2;}.cls-8{fill:#fff;}.cls-9{fill:#483d8b;}.cls-10{fill:#fccba9;}.cls-11,.cls-12{stroke:#fccba9;stroke-miterlimit:10;}.cls-12{fill:none;}.cls-13{clip-path:url(#clip-path-2);}.cls-14{fill:#ff1d25;}</style><clipPath id="clip-path"><path class="cls-1" d="M201.56,154.64l-55.34,3.12s3.85,12.31-12.86,12.86c-15.69.5-35.39,3.08-38.06,4.54C84,181.35,75.82,190.23,69.85,212.31c0,0-9.77,30.51-10.46,52a26.87,26.87,0,0,0,5.87,17.55c5.07,6.39,13.24,14.73,22.44,16.44l21.37-22.08,121.84,1.56-4.15-55.86,26.71,33.32s33.12.17,36.52-15.41c0,0-46.66-84.66-80.12-83.37Z"/></clipPath><clipPath id="clip-path-2"><path class="cls-2" d="M289.54,242.09s8.74,11.67,7,22.1.09.74.09.74-.72,21.69-53.48,20.13l-76.09-4.2-11.77.18-7.3,11s-14,1.62-20.78-8l21-21s87.71-16.47,106.37-8h0S279.27,256.25,289.54,242.09Z"/></clipPath></defs><g id="Layer_2" data-name="Layer 2"><g id="Layer_2-2" data-name="Layer 2"><path id="bg" class="cls-3" d="M28,276.87s-56.31-61.69-9.28-104.25c19-17.15,14.81-6.45,40.63-25.89,42-31.62,12-80.25,58-121.61C194.87-44.51,258.51,50.23,269,73.47c16.31,36.12,46,69.26,74.22,52.33,26.73-16,80.83-27.5,97.22,33.3,0,0,3.94,51.92-14.88,85.65S408,276.41,408,276.41Z"/><path class="cls-1" d="M201.56,154.64l-55.34,3.12s3.85,12.31-12.86,12.86c-15.69.5-35.39,3.08-38.06,4.54C84,181.35,75.82,190.23,69.85,212.31c0,0-9.77,30.51-10.46,52a26.87,26.87,0,0,0,5.87,17.55c5.07,6.39,13.24,14.73,22.44,16.44l21.37-22.08,121.84,1.56-4.15-55.86,26.71,33.32s33.12.17,36.52-15.41c0,0-46.66-84.66-80.12-83.37Z"/><g class="cls-4"><path class="cls-5" d="M226,157.32a28.93,28.93,0,0,1,3.58,7.75,39.12,39.12,0,0,1,1.46,8.47A76.12,76.12,0,0,1,230,190.61c-.92,5.6-2,11.13-2.72,16.69a58.67,58.67,0,0,0,0,16.79,45.38,45.38,0,0,1-1.57-16.94c.39-5.69,1.42-11.29,2.29-16.85a94.94,94.94,0,0,0,1.5-16.69A38.85,38.85,0,0,0,226,157.32Z"/><path class="cls-5" d="M230.42,180.46a24.29,24.29,0,0,0,5.4,9.33,66.24,66.24,0,0,0,8,7.36,90.45,90.45,0,0,1,8.27,7.34,31,31,0,0,1,6.22,9.35c3,6.95,3.79,14.37,5,21.52a77.14,77.14,0,0,0,2.38,10.58,31.53,31.53,0,0,0,4.84,9.66l-.21.11-.5-2.16.73,2.09.19.54-.39-.43a29.81,29.81,0,0,1-5.69-9.44,65.34,65.34,0,0,1-3-10.66c-.74-3.59-1.32-7.2-2.1-10.73a55.56,55.56,0,0,0-3.11-10.28,29.82,29.82,0,0,0-5.76-8.88,105.51,105.51,0,0,0-7.9-7.44,57.77,57.77,0,0,1-7.7-7.93A23.12,23.12,0,0,1,230.42,180.46Z"/><path class="cls-5" d="M228.49,194.73a18.73,18.73,0,0,0,3.82,7.73,52.31,52.31,0,0,0,6.06,6.22c2.17,1.95,4.37,3.91,6.46,6.06a50.26,50.26,0,0,1,5.5,7.08,66.85,66.85,0,0,1,7.21,16.25,144.3,144.3,0,0,1,4,17.21l0,.1-.09,0-.86-.27.89.15-.08.07c-1.73-5.61-3.4-11.24-5.36-16.72-1-2.74-2-5.46-3.28-8.07a59.32,59.32,0,0,0-4.1-7.62,50.32,50.32,0,0,0-5.19-6.87c-1.93-2.14-4.08-4.12-6.15-6.22a45.23,45.23,0,0,1-5.77-6.78A17.7,17.7,0,0,1,228.49,194.73Z"/><path class="cls-5" d="M226.49,210.79a66.6,66.6,0,0,0,8.87,10.78c3.27,3.32,6.69,6.52,9.92,10a51,51,0,0,1,8.28,11.61A24.63,24.63,0,0,1,256.35,257a29.42,29.42,0,0,0-4.17-13.1,62.21,62.21,0,0,0-8.37-11c-3.14-3.42-6.51-6.7-9.6-10.29A44,44,0,0,1,226.49,210.79Z"/><path class="cls-5" d="M236.16,167.42a20.08,20.08,0,0,0,4.08,11.23,43.84,43.84,0,0,0,8.43,8.62c3.17,2.51,6.53,4.85,9.76,7.43a42.49,42.49,0,0,1,8.7,9,24.06,24.06,0,0,1,2.85,5.69,31.7,31.7,0,0,1,1.4,6.16c.52,4.16.49,8.27.67,12.32a34.65,34.65,0,0,0,2.3,11.77,18.38,18.38,0,0,0,3.06,5.15,13.94,13.94,0,0,0,4.81,3.64,12.93,12.93,0,0,1-5.2-3.28,19.41,19.41,0,0,1-3.57-5.11,33.92,33.92,0,0,1-3-12.06c-.37-4.11-.38-8.21-1-12.17a31.88,31.88,0,0,0-1.36-5.77,22.84,22.84,0,0,0-2.67-5.23,41.83,41.83,0,0,0-8.23-8.65c-3.1-2.61-6.44-5-9.57-7.69a41.45,41.45,0,0,1-8.24-9.28A19.7,19.7,0,0,1,236.16,167.42Z"/><path class="cls-5" d="M105.11,176.89a24.38,24.38,0,0,0-11.44,14.3,24,24,0,0,0-.87,4.51,22.63,22.63,0,0,0,.1,4.58c.36,3.07,1.21,6.13,1.76,9.34a26.14,26.14,0,0,1,.37,4.94,20.74,20.74,0,0,1-.72,4.93,71.68,71.68,0,0,1-3.42,9,31.42,31.42,0,0,0-2.59,9,13.08,13.08,0,0,0,1.86,9c-2.17-2.4-2.94-5.84-2.84-9.07a24.53,24.53,0,0,1,.67-4.84A41.69,41.69,0,0,1,89.44,228a85.6,85.6,0,0,0,3-8.94,20.39,20.39,0,0,0,.61-4.51,24.46,24.46,0,0,0-.39-4.57c-.48-3.08-1.35-6.18-1.67-9.47a24.93,24.93,0,0,1,0-5,22.59,22.59,0,0,1,1.13-4.81A23,23,0,0,1,105.11,176.89Z"/><path class="cls-5" d="M103.44,172.74a33.72,33.72,0,0,0-16.3,17.6,31.37,31.37,0,0,0-2.3,11.79c0,4.06.46,8.19.4,12.42A39.75,39.75,0,0,1,82.89,227c-1.36,4-3,7.78-4.42,11.64a44.41,44.41,0,0,0-2.84,11.87,21.23,21.23,0,0,0,2.19,11.93,20.62,20.62,0,0,1-3.16-12A42.19,42.19,0,0,1,77,238.12c1.29-4,2.88-7.8,4.1-11.71a38.66,38.66,0,0,0,2.15-11.89c.1-4.06-.39-8.19-.29-12.42a32.31,32.31,0,0,1,20.49-29.36Z"/><path class="cls-5" d="M78.73,186.24c-.43,9-1,17.94-2.17,26.86q-.86,6.71-2.23,13.33c-.91,4.42-2.08,8.8-3.35,13.1s-2.61,8.57-3.63,12.9a57.66,57.66,0,0,0-1.81,13.09,36.05,36.05,0,0,0,2.2,13,24.16,24.16,0,0,0,7.64,10.71,23.55,23.55,0,0,1-8.54-10.34A35.17,35.17,0,0,1,64,265.54,55.36,55.36,0,0,1,65.5,252c1-4.42,2.3-8.74,3.56-13a194,194,0,0,0,6-26.09C76.44,204.05,77.53,195.14,78.73,186.24Z"/><circle class="cls-5" cx="178.36" cy="178.33" r="2.61"/><circle class="cls-5" cx="178.09" cy="189.16" r="2.61"/><path class="cls-5" d="M172.48,171.8c.23,2.74.26,5.46.23,8.17s-.16,5.43-.32,8.13-.42,5.41-.76,8.1a79.78,79.78,0,0,1-1.32,8.07c-.23-2.73-.27-5.45-.23-8.17s.15-5.42.32-8.13.42-5.41.76-8.1S171.88,174.48,172.48,171.8Z"/></g><path class="cls-6" d="M360,273.78c18.68-8.55,20.41-24.17,20.41-24.17,11.05-47.87-52.16-71.58-61.69-75.08a27,27,0,0,0-3.18-.95c-28.15-6.61-31.9-11.78-31.9-11.78a50.12,50.12,0,0,1-8.07-20.73,35.9,35.9,0,0,0-5.6-16.93,2.18,2.18,0,0,0-3.93.68c-1.39,5.47-3.76,14.48-4.61,16-1.23,2.22-18.26,5.18-18.26,5.18a82.25,82.25,0,0,1-5.51-7.26,1.43,1.43,0,0,0-2.63.63c-1,8.7-1.92,26.65,5.42,32.65,0,0,29.42,34,33.59,42,0,0,26,41.62,22.57,50.94,0,0,.31,7.29-9.09,12.9h0S334.18,285.6,360,273.78Z"/><path class="cls-7" d="M298.32,262.78s-7.92,9.5-1.38,12.74c0,0,6.44,2.19,9.92-.31,0,0,6.58-3,6.71-3s2.19-8.65-2.88-11.14C310.69,261,303.14,263.52,298.32,262.78Z"/><path d="M377.21,265.15c2.19,4.39,3.18,10.77-4.84,16a7.58,7.58,0,0,1-2.63,1.08c-6.7,1.39-40.59,9.48-63.2,4.45-23.26-5.19-63.39,6.92-73.92,16.54a7.47,7.47,0,0,1-8.66,1.18c-2.93-1.66-4.36-5.24,2.56-13a7.34,7.34,0,0,1,1.57-1.32c5.48-3.45,35.19-21.49,57.45-21.39a6.84,6.84,0,0,1,.79.05l13.82,1.36s29.91,4.18,47.41-3.21a8.52,8.52,0,0,1,1-.33l19.93-5.28A7.59,7.59,0,0,1,377.21,265.15Z"/><path class="cls-6" d="M269.92,158.88s5.42-4.13,9.7-4.45"/><path class="cls-8" d="M269.92,158.88a17.31,17.31,0,0,1,2.14-1.67,18.83,18.83,0,0,1,2.34-1.37,14.51,14.51,0,0,1,2.53-1,8.86,8.86,0,0,1,2.69-.4,20.58,20.58,0,0,0-5,1.85C273,157.08,271.48,158,269.92,158.88Z"/><path class="cls-6" d="M271.55,161.38s6.45-2.22,10.62-1.18"/><path class="cls-8" d="M271.55,161.38a18.13,18.13,0,0,1,2.56-.91,20.18,20.18,0,0,1,2.65-.57,14.67,14.67,0,0,1,2.73-.16,9,9,0,0,1,2.68.46,20.65,20.65,0,0,0-5.33.19C275.07,160.64,273.32,161,271.55,161.38Z"/><path class="cls-6" d="M245.58,167.08s-6.64-.15-10.11,2.08"/><path class="cls-8" d="M245.58,167.08c-1.74.19-3.46.36-5.16.66a19.3,19.3,0,0,0-4.95,1.42,8.39,8.39,0,0,1,2.32-1.25,14.93,14.93,0,0,1,2.55-.66A17.75,17.75,0,0,1,243,167,16.4,16.4,0,0,1,245.58,167.08Z"/><path class="cls-6" d="M245.84,170s-6.26,2-8.81,5.21"/><path class="cls-8" d="M245.84,170c-1.57.73-3.13,1.45-4.63,2.27a18.67,18.67,0,0,0-4.18,2.94,8.23,8.23,0,0,1,1.76-1.92,14.3,14.3,0,0,1,2.18-1.46,18.87,18.87,0,0,1,2.38-1.08A15.51,15.51,0,0,1,245.84,170Z"/><circle class="cls-6" cx="249.03" cy="159.67" r="3.99"/><path class="cls-8" d="M253,159.67a4.27,4.27,0,0,1-4,4.25,4.26,4.26,0,0,1-3.13-7.38,4.25,4.25,0,0,1,7.12,3.13Zm0,0a3.74,3.74,0,1,0-1.22,2.78A3.77,3.77,0,0,0,253,159.67Z"/><ellipse class="cls-6" cx="262.85" cy="155.26" rx="3.99" ry="3.99" transform="translate(-39.23 111.19) rotate(-22.27)"/><path class="cls-8" d="M259.16,156.77a3.71,3.71,0,0,0,5.1,1.95,3.75,3.75,0,0,0-2.83-6.93,3.73,3.73,0,0,0-2.27,5Zm0,0a4.23,4.23,0,0,1,5.39-5.59,4.25,4.25,0,0,1-.1,8A4.24,4.24,0,0,1,259.16,156.77Z"/><path class="cls-7" d="M276.27,197.63s5.39,12,5.9,16.71"/><path class="cls-7" d="M276.27,197.63a22.3,22.3,0,0,1,2.47,3.78,34.59,34.59,0,0,1,1.85,4.07,29.23,29.23,0,0,1,1.28,4.31,13.09,13.09,0,0,1,.3,4.55l-1.79-4.08c-.58-1.35-1.14-2.7-1.66-4.07s-1-2.77-1.42-4.18A32.5,32.5,0,0,1,276.27,197.63Z"/><path class="cls-7" d="M304.22,208.65s3.8,12.79,4.66,22c0,0,1.51-17.33,11.62-25.94,0,0-8.69,5.36-11,13.78C309.52,218.54,305.73,210.16,304.22,208.65Z"/><path class="cls-2" d="M205.2,133.58c-1.11,16.11-8.84,34.82-27.6,38.22-19.08,3.47-37.76-14.43-41.47-38.22-3.51-22.5,15.46-41.23,34.53-41.23S206.76,110.86,205.2,133.58Z"/><path class="cls-9" d="M157.9,61.53c-19.72,2.78-31.53,16-38.8,30.06s-4.68,30.07-6,45.87-8.61,31.72-11,47.39c-3,19.36-3.86,38.07-6.7,57.45s-1.64,40.44,9.41,56.62c.78,1.14,1.78,2.35,3.15,2.45,2.52.19,3.57-3.12,3.83-5.63a130.29,130.29,0,0,1,12.82-44.23c5.34-10.79,12.18-20.81,17.07-31.81s11.66-23.46,8.57-35.09c-3-11.19-15.17-21.48-13.47-32.93,1.55-10.42,10.82-17.59,17.35-25.86,10.24-13,14.15-29.84,15.65-46.29.45-5,.58-10.5-2.38-14.58s-10.19-5.13-12.69-.75"/><path class="cls-9" d="M204.19,129c-.14,6-1.76,11.83-3.31,17.62a28,28,0,0,0-1.36,8.82,9.78,9.78,0,0,0,4,7.7c1.89,1.22,4.24,1.54,6.5,1.83l11.3,1.44a5.7,5.7,0,0,0,3.43-.28c1.54-.84,1.87-2.83,2-4.54.86-9.18,1.69-18.67-1.23-27.44-3.34-10-4.26-10.76-8.28-20.55-4.44-10.8-7.66-31.64-15.69-40.81C197.51,68.14,188.75,65,182.54,64c-4.28-.68-9-.22-12.37,2.46a13.93,13.93,0,0,0-4.7,9.46,50.6,50.6,0,0,0,1.12,15.94c1.62,6.68,6.62,12.8,13.41,14.67,4.24,1.16,8.81.64,13.07,1.7C201.63,110.31,204.35,121.56,204.19,129Z"/><path d="M187.32,154.26a15.6,15.6,0,0,1-3.43,3.45,14.84,14.84,0,0,1-4.06,2.15,15,15,0,0,1-2.17.55,12.44,12.44,0,0,1-2.2.12,11.72,11.72,0,0,1-4.3-.95,20.63,20.63,0,0,0,4.29.17,15.18,15.18,0,0,0,4.18-.86,19.16,19.16,0,0,0,4-1.87A25.11,25.11,0,0,0,187.32,154.26Z"/><path d="M165.07,136.14c0,2.48-1.67,4-3.41,4s-2.23-1.48-2.23-4,.77-4.5,2.5-4.5S165.07,133.66,165.07,136.14Z"/><path d="M190.16,129.94c.23,2.44-1,4.55-2.67,4.71s-2.77-1.68-3-4.13.46-4.54,2.16-4.71S189.93,127.5,190.16,129.94Z"/><path d="M182.9,118.42s6.83-4.61,12.53-3.2"/><path d="M182.9,118.42a13.46,13.46,0,0,1,2.74-1.94,15.79,15.79,0,0,1,3.11-1.32,13.65,13.65,0,0,1,3.36-.56,8.31,8.31,0,0,1,3.32.62,19.52,19.52,0,0,0-3.26.16,25.83,25.83,0,0,0-3.13.73C187,116.74,185,117.57,182.9,118.42Z"/><path d="M150.19,127.19s6.37-5.25,12.18-4.38"/><path d="M150.19,127.19a12.73,12.73,0,0,1,2.55-2.2,16,16,0,0,1,3-1.61,13.29,13.29,0,0,1,3.29-.86,8.32,8.32,0,0,1,3.37.29,19.63,19.63,0,0,0-3.23.47,25.58,25.58,0,0,0-3.06,1A65.16,65.16,0,0,0,150.19,127.19Z"/><path class="cls-10" d="M176.18,136.87a13,13,0,0,0,2.82,4.22,14.84,14.84,0,0,0,1.95,1.62,4.52,4.52,0,0,1,1,1,2.53,2.53,0,0,1,.51,1.49,5.12,5.12,0,0,1-1,2.65,21.22,21.22,0,0,1-1.56,2.14,9.38,9.38,0,0,1-2,1.8,5.44,5.44,0,0,1-2.49.87,7.66,7.66,0,0,0,3.85-3.15c.48-.7.93-1.42,1.36-2.16a4.35,4.35,0,0,0,.81-2.14,2.3,2.3,0,0,0-1.12-1.76,11.82,11.82,0,0,1-1.93-1.82A9.88,9.88,0,0,1,176.18,136.87Z"/><g id="Hand"><path class="cls-11" d="M135.45,161.76l-1.06-16.54,5-19.42s4.58,3.18,3.45,12l-2.07,9.31,3.68,15"/><path class="cls-11" d="M139.67,160.46l-.45-14.18a9.49,9.49,0,0,1,.57-3.5l5.39-14.65s3.95,1.64,2.78,11.59l-2.45,10.13,2.7,8.89"/><path class="cls-2" d="M135.23,158.41l-.1-12.82,1.42-5.88c1.45-8.3-2.87-9.7-2.87-9.7l-4.31,12a12.06,12.06,0,0,0-.68,4.8l.61,10.1a13.8,13.8,0,0,0,1.64,5.74c2.14,4,6.34,11.05,10.62,14.7l5.38,4.29a3.64,3.64,0,0,1,.1,4.46c-1.38,1.79-42.58,48.71-59.14,67.56a35.84,35.84,0,0,0-8.73,19.93c-.91,8.77-.89,19.51,4.08,22.32,0,0,18.42,14.36,42.77-27.52l38.1-72.67s7-12.58,3-22.15c-2.67-6.41-11.2-12.19-11.2-12.19l-5.78-4.88,1.79-11s1.82-6.89-2.63-11.88l-4.61,14.09a5.14,5.14,0,0,0-.55,2.24l-.71,10.27"/><path class="cls-12" d="M135.23,158.41l-.1-12.82,1.42-5.88c1.45-8.3-2.87-9.7-2.87-9.7l-4.31,12a12.06,12.06,0,0,0-.68,4.8l.61,10.1a13.8,13.8,0,0,0,1.64,5.74c2.14,4,6.34,11.05,10.62,14.7l5.38,4.29a3.64,3.64,0,0,1,.1,4.46c-1.38,1.79-42.58,48.71-59.14,67.56a35.84,35.84,0,0,0-8.73,19.93c-.91,8.77-.89,19.51,4.08,22.32,0,0,18.42,14.36,42.77-27.52l38.1-72.67s7-12.58,3-22.15c-2.67-6.41-11.2-12.19-11.2-12.19l-5.78-4.88,1.79-11s1.82-6.89-2.63-11.88l-4.61,14.09a5.14,5.14,0,0,0-.55,2.24l-.71,10.27"/></g><g id="Arm"><path class="cls-2" d="M289.54,242.09s8.74,11.67,7,22.1.09.74.09.74-.72,21.69-53.48,20.13l-76.09-4.2-11.77.18-7.3,11s-14,1.62-20.78-8l21-21s87.71-16.47,106.37-8h0S279.27,256.25,289.54,242.09Z"/><g class="cls-13"><path class="cls-10" d="M296.94,262.78s-.88,11.51-34.32,15.64-106.93-2-106.93-2L148,292.08l10.29-8.95s107.11,6.49,113.27,3.25,26.77-6.06,26.77-23.6"/></g></g><path class="cls-14" d="M235.47,108.23s-5.06-3.07-5.9,4,8.72,1.75,9.62,10c0,0,.81-6.2,3.74-9.45,2.35-2.6,2.91-9.55-1.08-10.71C238.11,100.93,234.91,104.8,235.47,108.23Z"/></g></g></svg>