<svg width="398" height="190" viewBox="0 0 398 190" fill="none" xmlns="http://www.w3.org/2000/svg">
<path opacity="0.5" d="M9.0505 189.463C7.44822 189.463 4.08945 180.698 3.63022 179.577C0.293371 171.411 -0.775701 162.493 0.53627 153.768C3.10395 136.232 12.4193 120.014 28.2477 111.417C46.56 101.471 66.9104 108.822 86.1278 103.33C94.2165 101.002 101.417 96.286 106.79 89.7984C114.711 80.1942 114.734 70.3818 117.969 59.4079C120.842 49.6493 126.885 40.3438 133.512 32.7437C147.303 16.9257 167.09 6.1197 188.104 4.40766C204.036 3.10852 222.054 7.8821 230.146 21.6859C237.614 34.4423 234.798 51.5627 243.195 63.7149C245.738 67.3184 249.124 70.243 253.057 72.2328C256.99 74.2225 261.349 75.2167 265.755 75.1285C273.253 74.9036 278.097 71.2882 283.939 67.2061C288.297 64.158 292.712 63.5135 298.018 63.1341C312.046 62.1438 324.191 70.0897 331.83 81.5134C338.095 90.8827 339.751 102.172 344.94 111.907C347.411 116.547 348.51 122.012 350.786 126.795C353.133 131.75 356.126 136.453 360.132 140.243C365.954 145.752 373.54 148.998 379.872 153.896C390.884 162.406 397.745 176.072 397.997 190C386.207 189.208 374.318 189.463 362.482 189.463H9.0505Z" fill="#E6E8E9"/>
<path opacity="0.5" d="M391.903 89.1236C391.903 102.246 382.902 112.424 371.09 112.424C359.277 112.424 353.129 103.938 353.129 90.8122C353.129 77.6865 359.274 70.8618 371.09 70.8618C382.906 70.8618 391.903 75.9979 391.903 89.1236Z" fill="#E6E8E9"/>
<path opacity="0.5" d="M54.3567 81.5067C54.3567 91.1378 47.7498 98.607 39.0814 98.607C30.413 98.607 25.9011 92.3765 25.9011 82.7454C25.9011 73.1143 30.4096 68.1058 39.0814 68.1058C47.7532 68.1058 54.3567 71.8723 54.3567 81.5067Z" fill="#E6E8E9"/>
<path d="M151.5 43C158.404 43 164 37.4036 164 30.5C164 23.5964 158.404 18 151.5 18C144.596 18 139 23.5964 139 30.5C139 37.4036 144.596 43 151.5 43Z" fill="#00AFBE"/>
<path d="M157.534 36C157.429 36 157.328 35.9668 157.247 35.9061L151 31.3645V23.425C151 23.3123 151.049 23.2042 151.136 23.1245C151.223 23.0448 151.341 23 151.464 23C151.587 23 151.705 23.0448 151.792 23.1245C151.879 23.2042 151.928 23.3123 151.928 23.425V30.9536L157.824 35.2415C157.899 35.2963 157.955 35.3715 157.982 35.4564C158.009 35.5413 158.006 35.6318 157.974 35.7153C157.942 35.7988 157.883 35.8711 157.804 35.9221C157.725 35.9731 157.631 36.0004 157.534 36V36Z" fill="white"/>
<g opacity="0.55">
<path opacity="0.55" d="M85.655 99.9095C86.3757 96.4284 88.4037 93.0345 87.6159 89.55C86.56 84.8704 81.247 83.0174 78.314 79.3214C75.1228 75.293 75.1127 69.3747 76.41 64.3326C77.367 60.5805 78.8082 56.9693 80.6973 53.5903C82.7353 49.8238 84.3275 45.5672 83.5867 41.2233C83.0303 37.9604 81.2403 35.0633 80.1375 31.9414C78.977 28.5495 78.6662 24.9241 79.2324 21.3838C79.8257 17.5837 81.5789 14.9082 83.3018 11.6083C86.1041 6.23721 89.1679 -0.140991 96.3749 0.020143C101.47 0.124208 105.761 4.12234 108.992 8.33531C112.364 12.7363 115.193 17.7348 116.367 23.2569C117.54 28.7791 116.903 34.8653 113.863 39.4609C111.027 43.7511 105.999 47.5176 106.843 52.7175C107.849 58.9044 116.149 60.3479 119.062 65.8298C121.465 70.3516 119.43 76.0013 116.903 80.3956C114.375 84.7898 111.224 89.2949 111.479 94.4579C111.603 96.9017 112.485 99.2247 113.035 101.608C114.04 105.972 113.832 110.752 111.888 114.7C103.679 131.462 82.7353 113.989 85.655 99.9095Z" fill="#006838"/>
</g>
<path opacity="0.89" d="M110.45 72.7753L106.451 76.3941L100.082 82.1647L99.3249 82.8361V39.5717C99.3532 39.5006 99.3532 39.4213 99.3249 39.3501V31.4949L107.135 24.5057L108.272 23.4986C108.677 23.1394 108.08 22.5486 107.678 22.9078L99.7238 30.0077L99.3115 30.3737V22.2733C99.3115 21.0917 99.3349 19.9235 99.3115 18.7284V18.5706C99.3115 18.4593 99.2673 18.3526 99.1887 18.2739C99.1102 18.1952 99.0036 18.151 98.8925 18.151C98.7813 18.151 98.6748 18.1952 98.5962 18.2739C98.5176 18.3526 98.4734 18.4593 98.4734 18.5706V31.2196C98.4601 31.2759 98.4601 31.3345 98.4734 31.3908V38.1886L95.5102 34.1603L89.5369 26.0096L88.1592 24.1364C87.8441 23.7034 87.1167 24.1364 87.4351 24.5594L91.176 29.6553L97.1494 37.7858L98.4667 39.5851V63.6075C97.4611 62.4773 96.4555 61.3471 95.4499 60.2169L89.4765 53.5265L88.0955 51.9756C87.7335 51.5728 87.1435 52.167 87.5022 52.5698L91.2431 56.7626L97.2097 63.4463L98.4701 64.8596V83.6887C98.46 83.742 98.46 83.7966 98.4701 83.8499V90.5906L95.4298 87.4082L89.4698 81.171L88.0921 79.7242C87.7167 79.3348 87.1267 79.9289 87.4988 80.3184C88.748 81.6298 90.0006 82.9413 91.2565 84.2527C93.2409 86.3295 95.2264 88.4086 97.2131 90.4899L98.4701 91.8058V106.08C98.4701 107.261 98.45 108.446 98.4701 109.628C98.4701 109.682 98.4701 109.732 98.4701 109.782C98.4701 109.894 98.5142 110 98.5928 110.079C98.6714 110.158 98.778 110.202 98.8891 110.202C99.0002 110.202 99.1068 110.158 99.1854 110.079C99.264 110 99.3081 109.894 99.3081 109.782V83.9774L103.186 80.4728L109.555 74.7022L111.03 73.3594C111.443 73.0069 110.849 72.4161 110.45 72.7753Z" fill="#F1F2F2"/>
<g opacity="0.55">
<path opacity="0.55" d="M80.8617 108.722C80.379 106.429 80.7142 103.851 79.313 101.957C77.4325 99.4127 73.7084 99.7014 70.953 98.2445C67.9361 96.6567 66.3741 93.0949 65.8277 89.7111C65.4116 87.1929 65.3294 84.6307 65.583 82.0909C65.8243 79.2811 65.6634 76.2934 64.0645 73.8663C62.8611 72.0502 60.9974 70.7779 59.509 69.1834C57.9063 67.4479 56.7551 65.3438 56.157 63.057C55.5134 60.6064 55.8721 58.5284 56.043 56.0846C56.3212 52.0999 56.4989 47.4572 60.9102 45.6445C64.0343 44.3621 67.6981 45.6445 70.7787 47.3229C73.9933 49.0853 77.037 51.3513 79.2091 54.3725C81.3812 57.3938 82.6081 61.2308 81.9779 64.8059C81.3879 68.1427 79.3331 71.7447 81.2237 74.6552C83.4729 78.1196 88.8965 76.797 92.1179 79.3315C94.7761 81.4262 95.0375 85.374 94.6621 88.6873C94.2867 92.0006 93.5827 95.5556 95.1046 98.6037C95.8252 100.047 96.9817 101.215 97.9437 102.508C99.7103 104.878 100.847 107.808 100.716 110.712C100.17 122.985 82.8159 117.983 80.8617 108.722Z" fill="#006838"/>
</g>
<path opacity="0.89" d="M88.7457 85.807C88.2563 86.8879 87.7658 87.9677 87.2741 89.0464C86.4898 90.7674 85.7076 92.4895 84.9277 94.2128C84.8339 94.4142 84.74 94.6189 84.6495 94.8237L83.6036 92.4436L80.141 84.5582L76.618 76.5384L73.3598 69.1162L73.1854 68.7234C73.1839 68.6731 73.1635 68.6252 73.1285 68.5892L71.0636 63.8559L73.9698 57.5817C74.1106 57.2796 74.248 56.9775 74.3888 56.6787C74.5296 56.3799 74.0201 56.155 73.8726 56.4773L70.9195 62.8555L70.7686 63.1912L70.6111 62.832L68.6233 58.3068C68.3115 57.5952 68.0099 56.8734 67.6847 56.1685L67.6445 56.0745C67.6124 56.0111 67.5574 55.9623 67.4907 55.9382C67.4239 55.9141 67.3505 55.9164 67.2855 55.9447C67.2204 55.973 67.1686 56.0252 67.1406 56.0905C67.1126 56.1558 67.1106 56.2293 67.135 56.296L67.7853 57.7764L69.5216 61.7678L70.4636 63.9129C70.4696 63.9496 70.4845 63.9842 70.5071 64.0136L72.1228 67.7063L72.3072 68.1259L69.4378 66.4676L63.6555 63.1442C63.2086 62.8868 62.7616 62.6306 62.3147 62.3754C62.0097 62.2009 61.6778 62.644 61.9795 62.8219L65.6031 64.9066L71.3854 68.23L72.6625 68.9651L75.2805 74.9204L78.7733 82.7991L79.0549 83.4437L76.3196 82.1982L70.9195 79.7409L69.6691 79.1736C69.3339 79.0226 69.1395 79.5395 69.4647 79.6872L72.8335 81.2381L78.2336 83.6954L79.3733 84.2124L82.2796 90.829L84.3612 95.569C84.3675 95.6039 84.3812 95.6371 84.4014 95.6663L85.5378 98.2512L86.1881 99.7316L83.5064 98.6171L78.2336 96.4283L77.0135 95.9214C76.9463 95.8998 76.8733 95.9045 76.8095 95.9347C76.7456 95.9649 76.6956 96.0183 76.6696 96.0841C76.6436 96.1498 76.6435 96.223 76.6694 96.2888C76.6953 96.3546 76.7452 96.4081 76.809 96.4384L80.1343 97.8148L85.4071 100.003L86.5199 100.463L88.3133 104.545L90.2977 109.071C90.6128 109.786 90.9111 110.504 91.2396 111.212L91.2799 111.306C91.3119 111.37 91.3669 111.418 91.4337 111.443C91.5004 111.467 91.5738 111.464 91.6389 111.436C91.704 111.408 91.7558 111.356 91.7838 111.29C91.8117 111.225 91.8137 111.152 91.7894 111.085L91.1391 109.601L89.386 105.606L86.7847 99.6846L84.9545 95.5186L86.3825 92.3799C87.1624 90.6589 87.9446 88.9367 88.729 87.2135C88.9066 86.8174 89.0876 86.4179 89.2686 86.0218C89.4094 85.6827 88.8932 85.4847 88.7457 85.807Z" fill="#F1F2F2"/>
<g opacity="0.55">
<path opacity="0.55" d="M98.6411 108.275C99.6937 107.003 101.293 106.036 101.685 104.451C102.211 102.316 100.284 100.453 99.7875 98.3351C99.2478 96.0222 100.491 93.6052 102.134 91.8125C103.349 90.467 104.736 89.2886 106.26 88.3079C107.936 87.1934 109.535 85.7835 110.129 83.8566C110.574 82.4064 110.397 80.8353 110.581 79.3448C110.798 77.7166 111.431 76.1719 112.418 74.8599C113.477 73.4299 114.808 72.7014 116.253 71.7111C118.599 70.0964 121.281 68.136 124.392 69.697C126.587 70.798 127.616 73.3258 128.136 75.7193C128.679 78.2169 128.853 80.8521 128.2 83.3497C127.546 85.8472 125.984 88.1837 123.691 89.4291C121.549 90.594 118.566 91.0874 117.835 93.387C116.97 96.1262 120.282 98.4392 120.396 101.286C120.49 103.636 118.408 105.522 116.374 106.791C114.339 108.06 112.016 109.255 111.047 111.42C110.584 112.428 110.481 113.579 110.216 114.663C109.763 116.701 108.607 118.514 106.951 119.783C99.8411 124.919 94.3974 113.421 98.6411 108.275Z" fill="#006838"/>
</g>
<path opacity="0.89" d="M115.177 102.343L112.669 102.991L108.67 104.022L108.194 104.143L109.029 102.531L111.788 97.187L114.593 91.7555L117.191 86.7201L117.329 86.4549C117.354 86.4307 117.37 86.3988 117.376 86.3642L119.031 83.155L123.915 81.9297L124.616 81.7552C124.867 81.6914 124.733 81.3255 124.485 81.3892L119.524 82.6313L119.269 82.6951L119.393 82.4534L120.976 79.3885C121.227 78.9051 121.485 78.4251 121.727 77.9383L121.757 77.8745C121.871 77.653 121.509 77.4784 121.391 77.7L120.875 78.707L119.477 81.4161L118.726 82.8663C118.709 82.8867 118.696 82.9108 118.69 82.9368L117.406 85.4277L117.255 85.713C117.111 84.9577 116.963 84.2057 116.816 83.4504L115.927 78.8883C115.86 78.5358 115.79 78.1867 115.723 77.8342C115.676 77.5925 115.27 77.6127 115.317 77.8577C115.505 78.8111 115.691 79.7645 115.874 80.7179C116.171 82.2419 116.467 83.7637 116.762 85.2833C116.829 85.619 116.893 85.9547 116.96 86.2904L114.875 90.3187L112.116 95.6731L111.892 96.1095L111.288 94.0953L110.095 90.1173C110.004 89.8118 109.911 89.5063 109.82 89.1975C109.804 89.1463 109.768 89.1036 109.721 89.0787C109.673 89.0539 109.618 89.0489 109.567 89.0649C109.516 89.0809 109.473 89.1166 109.448 89.1642C109.423 89.2117 109.419 89.2672 109.435 89.3184C109.687 90.1464 109.936 90.9767 110.182 91.8092L111.372 95.7838L111.623 96.6231L109.311 101.105L107.634 104.321C107.618 104.339 107.607 104.361 107.601 104.384L106.696 106.137L106.18 107.144L105.526 105.21C105.097 103.948 104.669 102.685 104.242 101.42L103.947 100.544C103.867 100.306 103.481 100.426 103.562 100.661C103.834 101.46 104.104 102.257 104.37 103.052L105.653 106.838C105.741 107.107 105.831 107.372 105.922 107.641L104.494 110.407L102.928 113.465C102.677 113.948 102.419 114.428 102.177 114.915L102.147 114.979C102.033 115.2 102.395 115.375 102.513 115.153L103.029 114.146L104.427 111.441L106.498 107.412L107.956 104.589L110.387 103.961L114.386 102.931L115.311 102.723C115.559 102.645 115.425 102.28 115.177 102.343Z" fill="#F1F2F2"/>
<path d="M77.731 109.789H120.728C121.083 109.789 121.424 109.931 121.676 110.182C121.927 110.434 122.069 110.776 122.069 111.132V145.658C122.069 150.199 120.268 154.553 117.061 157.764C113.855 160.975 109.507 162.779 104.973 162.779H93.4354C91.1957 162.778 88.978 162.336 86.9091 161.477C84.8402 160.618 82.9605 159.359 81.3776 157.772C79.7947 156.185 78.5395 154.301 77.6837 152.229C76.8279 150.156 76.3884 147.935 76.3901 145.692V111.115C76.3946 110.762 76.5378 110.425 76.7887 110.176C77.0397 109.928 77.3782 109.789 77.731 109.789Z" fill="#ECC96D"/>
<path d="M122.072 119.716H76.3901V132.334H122.072V119.716Z" fill="#B49241"/>
<path opacity="0.15" d="M87.0227 109.792L121.965 147.615L122.068 111.132C122.025 110.743 121.832 110.386 121.532 110.136C121.231 109.886 120.846 109.761 120.456 109.789L87.0227 109.792Z" fill="#5A5B3B"/>
<path d="M334.475 160.905H264.608V148.82H334.475C334.475 148.82 329.661 150.294 329.782 155.031C329.872 159.657 334.475 160.905 334.475 160.905Z" fill="#F4D5B8"/>
<path opacity="0.3" d="M264.608 160.905L278.083 148.83H264.608V160.905Z" fill="#C49A6C"/>
<path d="M334.475 148.83V147.293H262.889C262.605 147.293 262.333 147.406 262.133 147.607C261.932 147.807 261.819 148.08 261.819 148.364V162.443H334.475V160.905H264.608V148.82L334.475 148.83Z" fill="#C49A6C"/>
<path d="M342.886 145.755H273.019V133.67H342.886C342.886 133.67 338.072 135.144 338.193 139.884C338.283 144.503 342.886 145.755 342.886 145.755Z" fill="#F4D5B8"/>
<path opacity="0.3" d="M273.019 145.755L291.639 133.677H273.019V145.755Z" fill="#C49A6C"/>
<path d="M342.885 133.677V132.14H271.299C271.015 132.14 270.743 132.252 270.543 132.453C270.342 132.654 270.229 132.927 270.229 133.211V147.293H342.885V145.755H273.018V133.67L342.885 133.677Z" fill="#C49A6C"/>
<path d="M329.699 130.605H259.832V118.52H329.699C329.699 118.52 324.888 119.994 325.006 124.734C325.096 129.353 329.699 130.605 329.699 130.605Z" fill="#F4D5B8"/>
<path opacity="0.3" d="M259.832 130.605L273.307 118.527H259.832V130.605Z" fill="#C49A6C"/>
<path d="M329.698 118.527V116.99H258.108C257.825 116.99 257.553 117.103 257.352 117.303C257.152 117.504 257.039 117.777 257.039 118.061V132.143H329.698V130.605H259.831V118.52L329.698 118.527Z" fill="#C49A6C"/>
<path d="M318.221 140.284H327.097V151.227L322.659 147.645L318.321 151.227L318.221 140.284Z" fill="#F26522"/>
<path d="M363.269 162.258H35.116C34.3755 162.258 33.7751 162.859 33.7751 163.601V169.009C33.7751 169.751 34.3755 170.352 35.116 170.352H363.269C364.01 170.352 364.61 169.751 364.61 169.009V163.601C364.61 162.859 364.01 162.258 363.269 162.258Z" fill="#F26522"/>
<path d="M92.0507 189.463H74.325L79.5072 164.222L96.529 167.683L92.0507 189.463Z" fill="#F26522"/>
<path d="M297.696 189.463H315.422L310.652 164.222L293.627 167.683L297.696 189.463Z" fill="#F26522"/>
<path d="M78.2637 170.352H95.9893L94.4407 178.002L78.2637 170.352Z" fill="#BD5027"/>
<path d="M312.009 170.352H294.284L295.836 178.002L312.009 170.352Z" fill="#BD5027"/>
<path d="M256.633 162.258H201.17L218.095 140.381H242.803L256.633 162.258Z" fill="#385558"/>
<path d="M218.095 140.381L213.948 145.742L246.286 145.89L242.803 140.381H218.095Z" fill="#374446"/>
<path d="M302.852 53.7649H151.738C150.997 53.7649 150.397 54.3661 150.397 55.1077V139.085C150.397 139.827 150.997 140.428 151.738 140.428H302.852C303.592 140.428 304.193 139.827 304.193 139.085V55.1077C304.193 54.3661 303.592 53.7649 302.852 53.7649Z" fill="#385558"/>
<path d="M299.688 57.8436H154.899V136.346H299.688V57.8436Z" fill="white"/>
<path d="M193.68 67H173.32C172.591 67 172 67.7936 172 68.7725V74.2275C172 75.2064 172.591 76 173.32 76H193.68C194.409 76 195 75.2064 195 74.2275V68.7725C195 67.7936 194.409 67 193.68 67Z" fill="#E4F4F4"/>
<path d="M282.293 66.9342H206.802C206.061 66.9342 205.461 67.5354 205.461 68.277V81.6477C205.461 82.3893 206.061 82.9905 206.802 82.9905H282.293C283.034 82.9905 283.634 82.3893 283.634 81.6477V68.277C283.634 67.5354 283.034 66.9342 282.293 66.9342Z" fill="#E4F4F4"/>
<path d="M282.545 88.0125H207.053C206.313 88.0125 205.712 88.6137 205.712 89.3553V127.131C205.712 127.873 206.313 128.474 207.053 128.474H282.545C283.285 128.474 283.886 127.873 283.886 127.131V89.3553C283.886 88.6137 283.285 88.0125 282.545 88.0125Z" fill="#E4F4F4"/>
<path d="M193.68 80H173.32C172.591 80 172 80.7936 172 81.7725V87.2275C172 88.2064 172.591 89 173.32 89H193.68C194.409 89 195 88.2064 195 87.2275V81.7725C195 80.7936 194.409 80 193.68 80Z" fill="#E4F4F4"/>
<path d="M193.68 93H173.32C172.591 93 172 93.7936 172 94.7725V100.227C172 101.206 172.591 102 173.32 102H193.68C194.409 102 195 101.206 195 100.227V94.7725C195 93.7936 194.409 93 193.68 93Z" fill="#E4F4F4"/>
<path d="M193.68 106H173.32C172.591 106 172 106.794 172 107.773V113.227C172 114.206 172.591 115 173.32 115H193.68C194.409 115 195 114.206 195 113.227V107.773C195 106.794 194.409 106 193.68 106Z" fill="#E4F4F4"/>
<path d="M193.68 119H173.32C172.591 119 172 119.794 172 120.773V126.227C172 127.206 172.591 128 173.32 128H193.68C194.409 128 195 127.206 195 126.227V120.773C195 119.794 194.409 119 193.68 119Z" fill="#E4F4F4"/>
<path d="M189.492 138.185H170.057V155.786H189.492V138.185Z" fill="#FECE8D"/>
<path d="M212.435 138.185H193V155.786H212.435V138.185Z" fill="#FECE8D"/>
<path d="M104.185 118.228L100.595 162.258H115.629L104.185 118.228Z" fill="#E6E7E8"/>
<path d="M165.451 162.258H115.596L104.185 118.228L153.866 117.564L165.451 162.258Z" fill="#D1D3D4"/>
<path d="M166.671 162.258H116.501L104.846 117.564H155.016L166.671 162.258Z" fill="white"/>
<path d="M121.717 137.215H116.189L114.905 132.291H120.429L121.717 137.215Z" fill="#F1F2F2"/>
<path d="M129.996 137.215H124.472L123.188 132.291H128.712L129.996 137.215Z" fill="#F1F2F2"/>
<path d="M138.279 137.215H132.755L131.468 132.291H136.995L138.279 137.215Z" fill="#F1F2F2"/>
<path d="M146.562 137.215H141.038L139.75 132.291H145.278L146.562 137.215Z" fill="#F1F2F2"/>
<path d="M154.845 137.215H149.317L148.033 132.291H153.561L154.845 137.215Z" fill="#F1F2F2"/>
<path d="M123.744 144.503H118.217L116.933 139.579H122.461L123.744 144.503Z" fill="#F1F2F2"/>
<path d="M132.027 144.503H126.5L125.216 139.579H130.744L132.027 144.503Z" fill="#F1F2F2"/>
<path d="M140.307 144.503H134.783L133.499 139.579H139.023L140.307 144.503Z" fill="#F1F2F2"/>
<path d="M148.59 144.503H143.066L141.779 139.579H147.306L148.59 144.503Z" fill="#F1F2F2"/>
<path d="M156.873 144.503H151.345L150.062 139.579H155.589L156.873 144.503Z" fill="#F1F2F2"/>
<path d="M125.773 151.788H120.245L118.961 146.867H124.489L125.773 151.788Z" fill="#F1F2F2"/>
<path d="M134.056 151.788H128.528L127.244 146.867H132.772L134.056 151.788Z" fill="#F1F2F2"/>
<path d="M142.339 151.788H136.811L135.527 146.867H141.055L142.339 151.788Z" fill="#F1F2F2"/>
<path d="M150.618 151.788H145.094L143.81 146.867H149.334L150.618 151.788Z" fill="#F1F2F2"/>
<path d="M158.901 151.788H153.377L152.093 146.867H157.617L158.901 151.788Z" fill="#F1F2F2"/>
<path d="M127.8 159.076H122.273L120.989 154.151H126.517L127.8 159.076Z" fill="#F1F2F2"/>
<path d="M136.083 159.076H130.556L129.272 154.151H134.8L136.083 159.076Z" fill="#F1F2F2"/>
<path d="M144.366 159.076H138.839L137.555 154.151H143.082L144.366 159.076Z" fill="#F1F2F2"/>
<path d="M152.649 159.076H147.122L145.838 154.151H151.365L152.649 159.076Z" fill="#F1F2F2"/>
<path d="M160.932 159.076H155.405L154.121 154.151H159.645L160.932 159.076Z" fill="#F1F2F2"/>
<path d="M158.851 127.611L107.497 127.437L104.846 117.564H156.072L158.851 127.611Z" fill="#D82A2E"/>
<path d="M157.899 128.575H106.9L107.497 127.437L158.851 127.611L157.899 128.575Z" fill="#A61F23"/>
<path d="M106.9 128.575L107.497 127.437L104.846 117.564L104.185 118.228L106.9 128.575Z" fill="#A61F23"/>
<path d="M124.06 123.338C124.472 123.338 124.807 123.003 124.807 122.589C124.807 122.176 124.472 121.841 124.06 121.841C123.647 121.841 123.312 122.176 123.312 122.589C123.312 123.003 123.647 123.338 124.06 123.338Z" fill="#231F20"/>
<path d="M144.487 123.16C144.9 123.16 145.235 122.825 145.235 122.411C145.235 121.998 144.9 121.663 144.487 121.663C144.074 121.663 143.74 121.998 143.74 122.411C143.74 122.825 144.074 123.16 144.487 123.16Z" fill="#231F20"/>
<path d="M115.646 117.564C115.646 117.564 118.063 114.542 120.915 115.62C124.529 116.986 123.976 122.411 123.976 122.411" stroke="#BCBEC0" stroke-width="2" stroke-miterlimit="10" stroke-linecap="round"/>
<path d="M136.13 117.564C136.13 117.564 138.547 114.542 141.4 115.62C145.01 116.986 144.457 122.411 144.457 122.411" stroke="#BCBEC0" stroke-width="2" stroke-miterlimit="10" stroke-linecap="round"/>
</svg>
