<svg width="297" height="167" viewBox="0 0 297 167" fill="none" xmlns="http://www.w3.org/2000/svg">
<path d="M294.569 166H7.61436C-17.4289 117.56 26.1717 86.5584 39.7568 93.9382C39.7568 6.24863 106.852 25.317 128.257 44.8842C134.357 17.1512 155.486 6.16537 165.52 2.77578C216.248 -13.864 230.958 48.6734 231.894 74.4034C297.713 78.4709 301.391 134.107 294.569 166Z" fill="url(#paint0_linear)"/>
<path d="M106 52.2724C106 51.1679 106.895 50.2724 108 50.2724H186.167C187.271 50.2724 188.167 51.1679 188.167 52.2724V166.091H106V52.2724Z" fill="#E85421"/>
<rect x="112.73" y="55.8811" width="68.1452" height="15.1434" rx="2" fill="white"/>
<rect x="112.73" y="76.6331" width="8.59089" height="4.76736" rx="2" fill="white"/>
<rect x="123.643" y="76.6331" width="9.05527" height="4.76736" rx="2" fill="white"/>
<rect x="135.252" y="76.6331" width="9.05527" height="4.76736" rx="2" fill="white"/>
<rect x="146.862" y="76.6331" width="9.05527" height="4.76736" rx="2" fill="white"/>
<rect x="119.461" y="61.4898" width="54.6844" height="3.92606" rx="1.96303" fill="#E85421"/>
<rect x="112.73" y="88.1309" width="23.2759" height="66.1821" rx="2" fill="white"/>
<rect x="117.473" y="92.759" width="14.0216" height="3.00828" rx="1.50414" fill="#E85421"/>
<rect x="117.473" y="99.4698" width="14.0216" height="3.00828" rx="1.50414" fill="#E85421"/>
<rect x="117.473" y="106.181" width="14.0216" height="3.00828" rx="1.50414" fill="#E85421"/>
<rect x="140.213" y="88.1309" width="40.6628" height="3.92606" rx="1.96303" fill="white"/>
<path d="M180 122.215L196.605 80L259 140.591L252.459 154H180V122.215Z" fill="#FFEAEA" fill-opacity="0.85"/>
<path d="M142 96.5L91 37V97.3066V110.905L142 118.5V96.5Z" fill="#FFEAEA" fill-opacity="0.85"/>
<rect x="195.5" y="79.5" width="63" height="63" rx="3.5" fill="white" stroke="#FFEAEA"/>
<path d="M231.808 133.496C231.919 134.058 231.553 134.605 230.988 134.692C227.261 135.271 223.45 135.032 219.818 133.988C215.854 132.849 212.217 130.783 209.209 127.96C206.201 125.138 203.908 121.64 202.519 117.757C201.246 114.198 200.766 110.409 201.106 106.654C201.158 106.084 201.68 105.685 202.247 105.759V105.759C202.815 105.833 203.212 106.353 203.163 106.923C202.864 110.352 203.308 113.81 204.47 117.059C205.749 120.633 207.859 123.852 210.627 126.449C213.395 129.046 216.742 130.948 220.39 131.997C223.706 132.95 227.185 133.173 230.588 132.657C231.154 132.571 231.698 132.935 231.808 133.496V133.496Z" fill="#E85421"/>
<path d="M214.023 93.8536C213.644 93.4113 212.976 93.3581 212.553 93.7587C210.221 95.9695 208.424 98.6897 207.305 101.712C206.064 105.065 205.7 108.679 206.247 112.212C206.794 115.745 208.234 119.08 210.43 121.901C212.41 124.444 214.946 126.494 217.838 127.896C218.362 128.15 218.982 127.897 219.21 127.361V127.361C219.437 126.825 219.185 126.209 218.663 125.952C216.101 124.692 213.854 122.865 212.094 120.605C210.119 118.068 208.823 115.068 208.331 111.89C207.839 108.712 208.167 105.46 209.283 102.444C210.277 99.7584 211.867 97.338 213.928 95.3625C214.348 94.9595 214.402 94.2958 214.023 93.8536V93.8536Z" fill="#E85421"/>
<path d="M241.651 109.175C241.651 112.107 240.782 114.973 239.153 117.411C237.524 119.849 235.208 121.749 232.499 122.872C229.79 123.994 226.809 124.287 223.933 123.715C221.057 123.143 218.416 121.731 216.342 119.658C214.269 117.584 212.857 114.943 212.285 112.067C211.713 109.191 212.006 106.21 213.129 103.501C214.251 100.792 216.151 98.4765 218.589 96.8474C221.027 95.2184 223.893 94.3489 226.826 94.3489L226.826 109.175H241.651Z" fill="#E85421"/>
<path d="M229 89C231.364 89 233.704 89.4656 235.888 90.3702C238.072 91.2748 240.056 92.6006 241.728 94.2721C243.399 95.9435 244.725 97.9278 245.63 100.112C246.534 102.296 247 104.636 247 107L229 107V89Z" fill="#FFEAEA"/>
<rect x="23.5" y="35.5" width="70" height="76" rx="3.5" fill="white" stroke="#FFEAEA"/>
<path d="M32 54L40.5 48L47.5 54L57 42L68.5 55.5L77.5 46.5L87.5 52" stroke="#E85421" stroke-linecap="round" stroke-linejoin="round"/>
<path d="M90.5 54L82 48L75 54L65.5 42L54 55.5L45 46.5L35 52" stroke="#E85421" stroke-linecap="round" stroke-linejoin="round"/>
<path d="M33.971 89.339C30.4638 91.8068 26.2657 101.384 26 103H81C79.8043 99.4746 71.8333 77 67.4493 77C62.7844 77 60.2754 84.0508 55.4928 96.3898C51.6667 106.261 46.3261 103 43.9348 96.3898C40.3478 88.0169 37.4783 86.8712 33.971 89.339Z" fill="#FFEAEA"/>
<path d="M43.1014 79.3559C39.9768 83.6271 36.2367 100.203 36 103H85C83.9348 96.8983 76.8333 58 72.9275 58C68.7715 58 66.5362 70.2034 62.2754 91.5593C58.8667 108.644 54.1087 103 51.9783 91.5593C48.7826 77.0678 46.2261 75.0847 43.1014 79.3559Z" fill="#FFA7A7"/>
<path d="M50.1014 95.1186C46.9768 96.5424 43.2367 102.068 43 103H92C90.9348 100.966 83.8333 88 79.9275 88C75.7715 88 73.5362 92.0678 69.2754 99.1864C65.8667 104.881 61.1087 103 58.9783 99.1864C55.7826 94.3559 53.2261 93.6949 50.1014 95.1186Z" fill="#E85421"/>
<rect x="140.213" y="122.063" width="40.6628" height="32.2498" rx="2" fill="white"/>
<circle cx="160.84" cy="138.304" r="9.8396" fill="#E85421"/>
<path fill-rule="evenodd" clip-rule="evenodd" d="M170.91 138.188H160.955V128.233C160.994 128.233 161.032 128.233 161.071 128.233C166.505 128.233 170.91 132.638 170.91 138.072C170.91 138.111 170.91 138.15 170.91 138.188Z" fill="white"/>
<rect x="140.213" y="95.7026" width="40.6628" height="22.7151" rx="2" fill="white"/>
<rect x="148.345" y="106.399" width="3.87087" height="8.57609" fill="#E85421"/>
<rect x="155.312" y="105.008" width="3.87087" height="9.96681" fill="#E85421"/>
<rect x="162.28" y="102.691" width="3.87087" height="12.2847" fill="#E85421"/>
<rect x="169.248" y="99.9091" width="3.87087" height="15.0661" fill="#E85421"/>
<defs>
<linearGradient id="paint0_linear" x1="148.5" y1="0" x2="148.5" y2="166" gradientUnits="userSpaceOnUse">
<stop stop-color="#FFD8CB"/>
<stop offset="1" stop-color="#FFE8D8"/>
</linearGradient>
</defs>
</svg>
