<svg width="399" height="193" viewBox="0 0 399 193" fill="none" xmlns="http://www.w3.org/2000/svg">
<circle cx="56.5" cy="97.5" r="56.5" fill="#D9F4F8" fill-opacity="0.5"/>
<circle cx="169.5" cy="136.5" r="56.5" fill="#D9F4F8" fill-opacity="0.5"/>
<circle cx="219" cy="38" r="38" fill="#D9F4F8" fill-opacity="0.5"/>
<circle cx="275" cy="106" r="47" fill="#D9F4F8" fill-opacity="0.5"/>
<circle cx="367.5" cy="105.5" r="31.5" fill="#D9F4F8" fill-opacity="0.5"/>
<circle cx="329.5" cy="69.5" r="4.5" fill="#33BFCC"/>
<circle cx="87.5" cy="31.5" r="4.5" fill="#33BFCC"/>
<circle cx="217" cy="127" r="7" fill="#33BFCC"/>
<circle cx="343" cy="56" r="7" fill="#33BFCC"/>
<circle cx="343" cy="142" r="7" fill="#33BFCC"/>
<path d="M159.891 30.9124C139.513 30.0427 132.786 40.3345 131.97 45.5891C147.645 51.6772 157.769 41.2404 160.871 35.2611L167.729 35.8046L162.34 31.456L162.83 24.3895C161.655 26.1289 160.381 29.4629 159.891 30.9124Z" fill="#FEE5D4"/>
<path d="M162.453 59.7341C137.625 55.3393 128.03 66.7717 126.335 73.0373C144.717 83.0174 158.489 71.9644 163.077 65.1903L171.399 66.9749L165.379 60.797L166.913 52.2713C165.244 54.1973 163.244 58.049 162.453 59.7341Z" fill="#FEE5D4"/>
<path d="M194.441 82.6207C172.978 68.0917 160.188 74.6236 156.477 79.7056C170.065 96.6848 186.588 92.2639 193.151 87.9311L200.239 93.0894L196.784 84.8371L201.121 77.5968C198.918 78.675 195.75 81.3953 194.441 82.6207Z" fill="#FEE5D4"/>
<path d="M241.224 78.0509C217.019 70.5051 206.298 80.6319 203.964 86.6386C221.184 98.9066 236.014 89.6916 241.276 83.5506L249.357 86.3893L244.019 79.4815L246.43 71.2094C244.572 72.9086 242.185 76.4784 241.224 78.0509Z" fill="#FEE5D4"/>
<path d="M298.016 108.737C278.06 91.7681 264.719 96.7606 260.544 101.378C272.436 119.858 289.287 117.404 296.227 113.866L302.783 119.828L300.135 111.217L305.138 104.527C302.845 105.34 299.435 107.673 298.016 108.737Z" fill="#FEE5D4"/>
<path d="M313.786 130.558C284.654 119.765 271.034 131.419 267.866 138.595C288.225 154.693 306.81 144.42 313.557 137.272L323.267 141.265L317.122 132.487L320.503 122.551C318.146 124.503 315.043 128.702 313.786 130.558Z" fill="#FEE5D4"/>
<path d="M190.017 101.798C165.319 96.5824 155.42 107.692 153.558 113.899C171.663 124.483 185.726 113.891 190.494 107.272L198.765 109.332L192.913 102.957L194.676 94.486C192.956 96.3557 190.854 100.139 190.017 101.798Z" fill="#FEE5D4"/>
<path d="M141.514 114.705C120.304 99.7245 107.405 105.985 103.607 110.987C116.901 128.251 133.497 124.18 140.133 119.987L147.131 125.294L143.819 116.97L148.279 109.823C146.058 110.854 142.844 113.507 141.514 114.705Z" fill="#FEE5D4"/>
<path d="M305.393 82.8179C267.995 66.8871 251.721 73.8505 248.259 79.3236C275.015 97.8392 297.629 93.1959 305.592 88.5598L318.084 94.211L309.725 85.2399L313.255 77.4341C310.433 78.5828 306.838 81.5019 305.393 82.8179Z" fill="#FEE5D4"/>
<path d="M233.931 52.4036C190.649 40.5021 172.638 55.9587 169.042 65.1748C200.429 84.2602 225.756 70.2559 234.496 60.868L248.974 65.3331L238.979 54.6386L242.513 41.9371C239.386 44.5299 235.489 49.9951 233.931 52.4036Z" fill="#FEE5D4"/>
<path d="M361.192 96.8326C327.566 87.5861 313.572 99.5946 310.779 106.755C335.164 121.582 354.841 110.702 361.631 103.409L372.879 106.878L365.113 98.569L367.86 88.701C365.43 90.7154 362.402 94.9614 361.192 96.8326Z" fill="#FEE5D4"/>
<path d="M282.454 35.9738C257.537 25.922 245.359 36.3757 242.385 42.859C259.528 57.646 275.967 48.4902 282.043 42.0639L290.335 45.7733L285.285 37.7535L288.532 28.7684C286.426 30.5183 283.603 34.3011 282.454 35.9738Z" fill="#FEE5D4"/>
<path d="M129.521 31.9585C109.143 31.0888 102.416 41.3806 101.599 46.6352C117.274 52.7232 127.398 42.2865 130.5 36.3072L137.358 36.8507L131.97 32.5021L132.46 25.4356C131.284 27.175 130.01 30.509 129.521 31.9585Z" fill="#00A7B5"/>
<path d="M132.082 60.7802C107.255 56.3854 97.6591 67.8178 95.9649 74.0834C114.346 84.0635 128.118 73.0105 132.706 66.2364L141.029 68.021L135.008 61.8431L136.543 53.3174C134.873 55.2433 132.874 59.0951 132.082 60.7802Z" fill="#00A7B5"/>
<path d="M164.07 83.6668C142.607 69.1378 129.818 75.6697 126.106 80.7518C139.695 97.7309 156.217 93.3101 162.78 88.9772L169.868 94.1355L166.413 85.8832L170.751 78.643C168.547 79.7212 165.379 82.4414 164.07 83.6668Z" fill="#1C75BC"/>
<path d="M210.853 79.097C186.648 71.5512 175.928 81.678 173.593 87.6846C190.813 99.9527 205.643 90.7377 210.905 84.5967L218.986 87.4354L213.649 80.5276L216.06 72.2555C214.201 73.9547 211.814 77.5245 210.853 79.097Z" fill="#F5A635"/>
<path d="M267.646 109.783C247.689 92.8142 234.349 97.8067 230.173 102.424C242.065 120.904 258.917 118.45 265.856 114.912L272.412 120.874L269.764 112.263L274.768 105.573C272.474 106.386 269.064 108.719 267.646 109.783Z" fill="#F5A635"/>
<path d="M283.416 131.604C254.283 120.811 240.663 132.465 237.495 139.641C257.854 155.739 276.439 145.466 283.187 138.318L292.896 142.311L286.751 133.533L290.133 123.597C287.775 125.549 284.672 129.748 283.416 131.604Z" fill="#00A7B5"/>
<path d="M308.896 62.8419C294.049 49.8503 282.227 56.42 278.171 61.3288C286.047 76.8847 300.533 72.1827 306.792 67.8872L311.624 72.5169L310.393 64.8541L315.386 57.8915C313.359 58.979 310.215 61.6449 308.896 62.8419Z" fill="#1C75BC"/>
<path d="M159.647 102.844C134.948 97.6285 125.049 108.738 123.187 114.945C141.292 125.529 155.355 114.937 160.124 108.318L168.394 110.378L162.543 104.003L164.306 95.5321C162.586 97.4018 160.483 101.186 159.647 102.844Z" fill="#00A7B5"/>
<path d="M111.143 115.751C89.9335 100.771 77.0344 107.031 73.2361 112.034C86.5307 129.297 103.126 125.226 109.762 121.033L116.761 126.34L113.448 118.016L117.909 110.869C115.687 111.901 112.473 114.553 111.143 115.751Z" fill="#1C75BC"/>
<path d="M71.5634 98.0583C47.2458 90.9743 36.6833 101.304 34.4418 107.354C51.8493 119.292 66.5342 109.796 71.7007 103.556L79.8244 106.241L74.381 99.4355L76.6636 91.1187C74.8319 92.853 72.5003 96.4677 71.5634 98.0583Z" fill="#00A7B5"/>
<path d="M275.022 83.864C237.624 67.9331 221.35 74.8966 217.888 80.3697C244.644 98.8853 267.258 94.242 275.221 89.6059L287.714 95.2571L279.354 86.286L282.884 78.4802C280.062 79.6289 276.467 82.548 275.022 83.864Z" fill="#00A7B5"/>
<path d="M203.56 53.4497C160.279 41.5482 142.267 57.0048 138.672 66.2208C170.058 85.3063 195.385 71.3019 204.126 61.9141L218.603 66.3792L208.608 55.6847L212.143 42.9832C209.016 45.576 205.118 51.0412 203.56 53.4497Z" fill="#00A7B5"/>
<path d="M330.821 97.8787C297.195 88.6322 283.202 100.641 280.408 107.801C304.793 122.628 324.47 111.748 331.26 104.455L342.508 107.924L334.743 99.6151L337.489 89.747C335.06 91.7615 332.032 96.0075 330.821 97.8787Z" fill="#00A7B5"/>
<path d="M169.602 23.6166C150.423 15.9267 141.199 23.4682 138.984 28.2002C152.255 39.2791 164.755 32.743 169.346 28.0901L175.732 30.9171L171.787 24.9592L174.186 18.3908C172.59 19.6524 170.465 22.4003 169.602 23.6166Z" fill="#00A7B5"/>
<path d="M252.084 37.0198C227.166 26.968 214.989 37.4217 212.014 43.9051C229.157 58.6921 245.596 49.5362 251.673 43.1099L259.965 46.8194L254.915 38.7996L258.161 29.8144C256.055 31.5643 253.232 35.3472 252.084 37.0198Z" fill="#00A7B5"/>
<path d="M208.131 21.4349C181.688 23.5753 174.43 38.6429 174.107 45.9091C195.201 51.6191 206.825 35.8012 210.001 27.1786L218.935 26.7988L211.37 21.7736L211.02 12.1009C209.743 14.6538 208.562 19.3873 208.131 21.4349Z" fill="#1C75BC"/>
</svg>
