<svg width="312" height="186" viewBox="0 0 312 186" fill="none" xmlns="http://www.w3.org/2000/svg">
<path d="M27.8308 186C22.105 174.548 -2.08381 146.074 0.144627 108.933C8.7104 112.887 35.4229 121.486 47.2927 137.484C40.6017 125.306 31.0378 106.223 34.4997 69.0071C39.1423 79.3755 60.5145 89.713 74.2565 118.683C71.6257 106.612 78.3245 79.5921 82.7813 51.3653C89.8999 56.6269 95.798 70.3998 105.826 100.112C106.6 79.9945 104.23 44.2157 99.0303 32.3307C112.62 40.2823 136.88 44.8842 140.013 74.8301C140.009 59.2469 144.988 39.3704 155.966 22.5813C163.084 30.9379 183.99 53.8723 183.99 78.7565C185.692 69.0071 186.328 46.8156 201.927 36.0448C211.986 46.2584 229.69 73.3711 220.033 100.112C224.985 88.0416 239.903 62.2289 259.959 55.5436C256.71 68.0786 240.907 91.4771 240.165 108.933C246.974 93.458 272.123 68.6357 281.78 69.0071C279.303 84.1728 275.094 119.704 278.065 140.503C284.875 127.039 298.493 96.7697 298.493 83.3991C309.171 104.136 323.47 153.688 295.243 186H27.8308Z" fill="#EBF8E8"/>
<path d="M182.085 179.002C182.085 183.255 169.059 186 153.187 186C137.315 186 124.6 183.404 124.6 179.002C124.572 178.688 124.572 178.373 124.6 178.059C125.367 181.559 138.221 184.116 153.356 184.116C168.491 184.116 182.337 181.348 182.069 177.782C182.104 178.188 182.11 178.596 182.085 179.002Z" fill="#3C4C4F"/>
<path d="M182.085 178.065C182.086 178.227 182.056 178.386 181.999 178.537C180.849 181.665 168.448 184.123 153.342 184.123C138.237 184.123 125.826 181.662 124.686 178.537C124.63 178.386 124.601 178.226 124.6 178.065C124.6 174.723 137.467 172.008 153.356 172.008C169.244 172.008 182.085 174.717 182.085 178.065Z" fill="#3B5E62"/>
<path d="M147.806 157.34H158.879V173.856C158.879 174.206 158.74 174.541 158.492 174.789C158.244 175.036 157.907 175.175 157.557 175.175H149.128C148.778 175.175 148.441 175.036 148.193 174.789C147.945 174.541 147.806 174.206 147.806 173.856V157.34Z" fill="#3C4C4F"/>
<path d="M221.617 66.2215H85.0522C82.8361 66.2215 81.0396 68.0147 81.0396 70.2268V154.948C81.0396 157.16 82.8361 158.953 85.0522 158.953H221.617C223.833 158.953 225.629 157.16 225.629 154.948V70.2268C225.629 68.0147 223.833 66.2215 221.617 66.2215Z" fill="#3B5E62"/>
<path d="M221.042 70.9856H85.624V149.481H221.042V70.9856Z" fill="white"/>
<circle cx="147.17" cy="111.255" r="30.1768" fill="#35C0CC"/>
<path d="M144.323 131.752C136.124 132.663 132.556 135.548 131.796 136.876C150.927 146.442 164.82 137.066 169.375 131.183C156.279 136.307 154.571 130.613 144.323 131.752Z" fill="#42991C"/>
<path d="M142.045 93.604C135.668 89.96 138.249 84.1144 140.337 81.6471C165.389 77.5476 175.448 97.3998 177.346 107.838C177.346 114.671 172.412 119.036 169.944 120.364C155.141 127.766 150.586 115.809 153.433 109.546C156.279 103.283 150.016 98.1589 142.045 93.604Z" fill="#42991C"/>
<path d="M129.301 106.258C129.229 100.043 133.099 97.5045 135.043 97.012C138.755 96.2758 140.355 98.9019 140.691 100.307C142.438 107.613 143.147 122.777 132.011 124.985C118.09 127.745 122.439 118.214 124.09 115.88C125.741 113.546 129.39 114.026 129.301 106.258Z" fill="#42991C"/>
<path fill-rule="evenodd" clip-rule="evenodd" d="M184.489 111.741C190.732 105.812 190.987 95.9453 185.059 89.7023C179.13 83.4593 169.263 83.2044 163.02 89.133C156.777 95.0616 156.522 104.929 162.45 111.172C168.379 117.415 178.246 117.67 184.489 111.741ZM181.528 108.623C186.048 104.33 186.233 97.1844 181.94 92.6636C177.647 88.1428 170.502 87.9582 165.981 92.2514C161.46 96.5445 161.275 103.69 165.569 108.21C169.862 112.731 177.007 112.916 181.528 108.623Z" fill="#C4C4C4"/>
<circle cx="173.754" cy="100.437" r="11.2885" transform="rotate(-43.5203 173.754 100.437)" fill="#00AFBE" fill-opacity="0.15"/>
<path d="M182.317 110.986L184.955 108.482L199.212 123.495C199.903 124.223 199.873 125.374 199.145 126.066C198.417 126.757 197.266 126.728 196.574 125.999L182.317 110.986Z" fill="#C4C4C4"/>
<path d="M35.2837 177.179C35.2837 172.307 39.2329 168.358 44.1046 168.358H110.493L108.463 170.826C105.427 174.517 105.427 179.841 108.463 183.532L110.493 186H44.1046C39.2329 186 35.2837 182.051 35.2837 177.179Z" fill="#979797"/>
<path d="M39.7739 177.179C39.7739 174.359 42.0603 172.072 44.8808 172.072H107.51C105.631 175.217 105.637 179.144 107.52 182.286H44.8808C42.0603 182.286 39.7739 180 39.7739 177.179Z" fill="#F0CFAF"/>
<path d="M37.1406 141.896C37.1406 137.024 41.0899 133.075 45.9615 133.075H99.3512L97.177 136.269C94.8667 139.664 94.8667 144.127 97.177 147.522L99.3512 150.716H45.9615C41.0899 150.716 37.1406 146.767 37.1406 141.896Z" fill="#C69D72"/>
<path d="M40.8547 141.896C40.8547 139.075 43.1411 136.789 45.9616 136.789H96.7876C94.9316 139.94 94.9316 143.851 96.7876 147.002H45.9616C43.1411 147.002 40.8547 144.716 40.8547 141.896Z" fill="#F0CFAF"/>
<path d="M92.8516 141.431H83.5664V152.573L88.209 147.931L92.8516 152.573V141.431Z" fill="#E85421"/>
<path d="M24.1414 159.537C24.1414 154.666 28.0906 150.716 32.9623 150.716H86.3519L84.1777 153.911C81.8674 157.306 81.8674 161.768 84.1777 165.163L86.3519 168.358H32.9622C28.0906 168.358 24.1414 164.409 24.1414 159.537Z" fill="#00A7B5"/>
<path d="M27.8555 159.537C27.8555 156.717 30.1419 154.43 32.9623 154.43H83.7884C81.9323 157.582 81.9323 161.493 83.7884 164.644H32.9623C30.1419 164.644 27.8555 162.358 27.8555 159.537Z" fill="#F0CFAF"/>
<path d="M79.8523 159.073H70.5671V170.215L75.2097 165.573L79.8523 170.215V159.073Z" fill="#E85421"/>
<path d="M58.7539 98.7196H77.3321L80.9911 105.85H55.7109L58.7539 98.7196Z" fill="#C69D72"/>
<path d="M57.6555 105.85H78.3982L76.4536 133.075H59.6001L57.6555 105.85Z" fill="#F5A635"/>
<path d="M78.2054 112.183C71.5201 114.04 61.4921 112.957 57.7781 112.183L58.7066 123.789C62.8849 126.575 73.0986 126.111 77.2769 123.789L78.2054 112.183Z" fill="#E78800"/>
<path fill-rule="evenodd" clip-rule="evenodd" d="M250.569 46.6386L249.904 46.5941L249.06 59.2154L249.381 59.2369C248.102 59.1572 246.997 60.1266 246.912 61.407L246.578 66.3891L251.228 66.7002L251.561 61.7182C251.647 60.4377 250.682 59.3298 249.403 59.2384L249.724 59.2599L250.569 46.6386Z" fill="#F5A635"/>
<path fill-rule="evenodd" clip-rule="evenodd" d="M231.194 50.5926L198.898 48.4316L197.522 68.992C197.52 69.0163 197.518 69.0408 197.516 69.0652C197.301 72.2858 204.356 75.3803 213.274 75.977C222.193 76.5738 229.597 74.4468 229.813 71.2263C229.813 71.2262 229.813 71.2262 229.813 71.2262L229.814 71.2263L231.194 50.5926Z" fill="#3B5E62"/>
<path d="M178.221 43.4651C176.573 42.6905 176.733 40.2961 178.469 39.7479L215.972 27.9084C216.463 27.7534 216.995 27.7938 217.457 28.0211L251.212 44.6286C252.815 45.4172 252.659 47.7514 250.965 48.3194L215.299 60.2817C214.811 60.4455 214.278 60.4146 213.812 60.1956L178.221 43.4651Z" fill="#3C4C4F"/>
<rect x="279.451" y="132.146" width="4.64258" height="52.2209" transform="rotate(26.9232 279.451 132.146)" fill="#FDCCAA"/>
<path d="M229.808 176.072C229.808 173.863 231.599 172.072 233.808 172.072H272.234C274.443 172.072 276.234 173.863 276.234 176.072V186H229.808V176.072Z" fill="#6A6B6D"/>
<rect x="250.235" y="93.1231" width="4.64258" height="46.099" transform="rotate(-36.4791 250.235 93.1231)" fill="#FDCCAA"/>
<path d="M214.704 84.6927C221.685 72.4401 237.278 68.1673 249.53 75.149C261.783 82.1307 266.056 97.7232 259.074 109.976L257.465 112.799L213.095 87.5163L214.704 84.6927Z" fill="#F5A635"/>
<circle cx="280.876" cy="132.146" r="4.64258" fill="#F5A635"/>
<path d="M143.92 185.536L213.559 87.1131L257.199 112.183L254.413 185.536H143.92Z" fill="url(#paint0_linear)"/>
<defs>
<linearGradient id="paint0_linear" x1="237.236" y1="95.0055" x2="194.524" y2="185.071" gradientUnits="userSpaceOnUse">
<stop stop-color="#F5A635"/>
<stop offset="0.0001" stop-color="#F29106" stop-opacity="0.19"/>
<stop offset="1" stop-color="#F5A635" stop-opacity="0"/>
</linearGradient>
</defs>
</svg>
