<svg width="245" height="164" viewBox="0 0 245 164" fill="none" xmlns="http://www.w3.org/2000/svg">
<path d="M109.468 49.8097C54.8762 31.4009 13.7427 49.8097 0 61.3152V97.8621C15.0064 84.3262 58.5725 70.1135 112.785 121.55C166.998 172.986 223.517 164.639 245 154.036V82.9726C203.298 112.752 177.708 72.8207 109.468 49.8097Z" fill="#E4F5F2"/>
<path d="M135.532 160.29C190.124 169.035 231.257 160.29 245 154.825V137.466C229.994 143.895 186.427 150.646 132.215 126.214C78.0019 101.782 21.4829 105.746 0 110.783V144.538C41.7021 130.393 67.2921 149.36 135.532 160.29Z" fill="#E4F5F2"/>
<path d="M109.468 69.8711C59.3046 42.5087 13.7427 69.8711 0 78.2787V104.985C15.0064 95.0938 62.4325 81.8815 116.645 119.468C167.794 154.93 223.517 137.679 245 129.931V78.2787C203.298 100.039 169.338 102.528 109.468 69.8711Z" fill="#50E2C2"/>
<path d="M135.532 150.136C190.124 156.394 231.257 157.697 245 153.786V141.363C229.994 145.964 186.427 143.235 132.215 125.75C78.0019 108.266 21.4829 111.103 0 114.707V138.863C41.7021 128.741 67.2921 142.314 135.532 150.136Z" fill="#50E2C2"/>
<path fill-rule="evenodd" clip-rule="evenodd" d="M50.3286 62.7461C54.8376 73.2936 67.3565 78.0131 78.2907 73.3666C79.2456 72.9617 80.1208 72.4373 81.0226 71.9461C81.8234 71.6125 82.7058 71.527 83.5556 71.7005C86.4191 71.917 89.2825 71.2795 91.7844 69.8685C90.0224 69.8225 88.3113 69.2669 86.8578 68.2687C85.9759 67.6448 86.566 67.2532 87.1164 66.5429C87.5921 65.916 88.0347 65.2646 88.4425 64.5914C90.1624 61.7956 91.1929 58.6302 91.4489 55.3568C91.7048 52.0835 91.1789 48.7961 89.9146 45.7665C85.399 35.2256 72.88 30.4994 61.9524 35.1459C51.0248 39.7924 45.8196 52.1985 50.3286 62.7461Z" fill="#E85421"/>
<path fill-rule="evenodd" clip-rule="evenodd" d="M75.7848 59.4869C75.9536 59.7982 76.0382 60.1483 76.0301 60.5025C75.9431 60.8945 75.7228 61.2441 75.4068 61.4915C74.9006 61.9825 74.3623 62.4393 73.7955 62.8589C73.487 63.1372 73.09 63.2971 72.6749 63.3103C72.0914 63.2506 71.6737 62.6465 71.3488 62.1354C71.0313 61.7464 70.879 61.2483 70.9244 60.7481C71.0402 60.4183 71.2587 60.1345 71.5477 59.9383C72.3916 59.2388 73.2773 58.5915 74.2 58C74.5647 57.7677 74.8167 57.5619 75.1283 58C75.3988 58.4712 75.6188 58.9695 75.7848 59.4869V59.4869Z" fill="white"/>
<path fill-rule="evenodd" clip-rule="evenodd" d="M69.6179 58.3186C70.3345 58.1008 71.0258 57.807 71.6801 57.4424C72.3155 57.095 72.8067 56.5327 73.0659 55.856C73.2151 55.2882 73.2151 54.6914 73.0659 54.1235C72.4028 50.6718 70.9839 47.406 69.5383 44.1668C69.3205 43.488 68.8601 42.9137 68.2453 42.5538C67.8636 42.4271 67.4604 42.3783 67.0595 42.4102C66.6586 42.4422 66.2682 42.5542 65.9113 42.7396C64.8639 43.1837 63.9498 43.8928 63.259 44.7974C62.5627 45.7399 63.4314 46.7422 63.8491 47.6583C64.9012 49.9948 66.066 52.2826 67.3435 54.5218C68.0663 55.8162 68.8222 57.0508 69.6179 58.3186Z" fill="white"/>
<path fill-rule="evenodd" clip-rule="evenodd" d="M137.532 31.3823C136.643 33.7376 135.363 35.9257 133.746 37.8542C132.274 39.6199 130.298 40.8678 128.965 42.733C127.598 44.6663 126.65 46.8638 126.18 49.185C126.021 49.9749 125.212 55.3781 126.18 55.7432C122.719 54.3567 119.929 51.6828 118.395 48.2822C118.103 47.6184 117.898 46.2909 117.381 45.9789C116.864 45.6669 115.332 45.9059 114.649 45.8528C109.935 45.4669 105.461 43.6065 101.861 40.535C98.2618 37.4635 95.7183 33.3364 94.5911 28.738C93.4638 24.1395 93.8098 19.3026 95.5802 14.9119C97.3506 10.5212 100.456 6.79907 104.456 4.27241C108.456 1.74576 113.149 0.542543 117.87 0.833084C122.591 1.12362 127.101 2.8932 130.762 5.89134C134.422 8.88947 137.049 12.9643 138.268 17.539C139.488 22.1138 139.24 26.9567 137.558 31.3823H137.532Z" fill="#9013FE"/>
<path fill-rule="evenodd" clip-rule="evenodd" d="M191.99 45.4877C192.394 50.9819 190.601 56.4116 187.006 60.5828C183.411 64.754 178.309 67.3253 172.82 67.7311C171.831 67.7809 170.839 67.7809 169.85 67.7311C169.015 67.8042 168.223 68.1333 167.582 68.6737C165.245 70.1745 162.506 70.9228 159.731 70.8177C161.225 69.954 162.439 68.6772 163.226 67.1403C163.703 66.1778 163.027 66.1048 162.238 65.7198C161.555 65.3819 160.891 65.0074 160.248 64.598C157.252 62.7058 154.79 60.077 153.096 56.9622C151.402 53.8474 150.533 50.3503 150.572 46.8041C150.611 43.2578 151.556 39.7806 153.318 36.7037C155.079 33.6268 157.599 31.0527 160.636 29.2267C163.673 27.4007 167.126 26.3835 170.667 26.2722C174.208 26.1608 177.719 26.959 180.864 28.5906C184.01 30.2222 186.685 32.6329 188.636 35.5931C190.587 38.5532 191.749 41.9642 192.01 45.501L191.99 45.4877Z" fill="#27AAE1"/>
<path fill-rule="evenodd" clip-rule="evenodd" d="M164.167 38.0268C164.93 37.1034 165.875 36.3474 166.943 35.8061C168.011 35.2647 169.179 34.9496 170.374 34.8804C172.108 34.6553 173.868 35.0175 175.373 35.9093C176.053 36.3561 176.631 36.9421 177.069 37.6286C177.507 38.3152 177.794 39.0867 177.913 39.8925C178.031 40.6982 177.978 41.52 177.756 42.3036C177.534 43.0872 177.149 43.8149 176.626 44.4389C175.546 45.7134 173.895 46.5498 173.245 48.0897C172.89 49.1151 172.835 50.2203 173.086 51.2759C173.198 51.9397 173.338 52.7296 172.913 53.2673C172.747 53.4491 172.54 53.5898 172.31 53.6785C172.08 53.7672 171.832 53.8013 171.587 53.7784C171.005 53.7218 170.451 53.5 169.99 53.139C169.53 52.778 169.182 52.2928 168.988 51.7405C168.633 50.6121 168.687 49.3947 169.14 48.3021C169.599 47.2204 170.189 46.1994 170.897 45.262C171.422 44.5496 171.867 43.7816 172.224 42.972C172.589 42.1484 172.652 41.2224 172.403 40.3567C172.186 39.6401 171.695 39.039 171.035 38.6855C170.376 38.3319 169.604 38.255 168.888 38.4715C168.173 38.688 167.572 39.1803 167.219 39.8401C166.866 40.4999 166.789 41.273 167.005 41.9896C167.213 42.4745 167.341 42.9902 167.383 43.5163C167.317 44.6115 166.103 45.0762 165.168 45.0363C164.797 45.0741 164.424 44.986 164.109 44.7862C163.794 44.5863 163.556 44.2864 163.431 43.9344C163.023 42.9721 162.876 41.9189 163.006 40.8815C163.135 39.8441 163.536 38.8593 164.167 38.0268V38.0268Z" fill="white"/>
<path fill-rule="evenodd" clip-rule="evenodd" d="M170.042 57.2101C169.967 57.3346 169.92 57.4735 169.903 57.6177C169.886 57.7618 169.899 57.9079 169.942 58.0465C170.048 58.2505 170.202 58.4248 170.392 58.5535C170.582 58.6822 170.802 58.7612 171.03 58.7833C171.639 58.913 172.274 58.8599 172.853 58.6306C173.139 58.5125 173.398 58.3391 173.617 58.1204C173.835 57.9017 174.008 57.642 174.126 57.3562C175.041 54.9864 170.725 55.9755 170.042 57.2101Z" fill="white"/>
<path fill-rule="evenodd" clip-rule="evenodd" d="M115.841 14.2301C115.304 13.5079 114.603 12.9236 113.796 12.5255C112.989 12.1274 112.099 11.9267 111.2 11.9401C110.145 12.0288 109.139 12.4188 108.299 13.0636C107.46 13.7085 106.823 14.5811 106.465 15.5776C106.132 16.5811 106.026 17.6463 106.156 18.6958C106.285 19.7452 106.647 20.7526 107.214 21.6446C108.055 22.8602 109.034 23.974 110.132 24.9635C111.231 25.9601 112.131 27.1561 112.784 28.4882C113.106 29.1594 113.259 29.899 113.23 30.6428C113.201 31.3866 112.991 32.1121 112.619 32.7563C114.256 31.1566 116.504 30.38 118.692 29.7029C120.88 29.0259 123.142 28.3754 124.912 26.8951C126.682 25.4149 127.823 22.9589 127.007 20.8149C126.635 19.9779 126.044 19.2565 125.298 18.7263C124.551 18.1962 123.676 17.8767 122.764 17.8013C121.824 17.7153 120.877 17.8076 119.972 18.0734C119.488 18.2062 117.943 19.1488 117.505 18.8833C117.181 18.6908 117.101 16.8919 116.968 16.4737C116.726 15.6658 116.345 14.9065 115.841 14.2301V14.2301Z" fill="white"/>
<path fill-rule="evenodd" clip-rule="evenodd" d="M163.868 142.991C163.681 132.849 162.156 122.776 159.333 113.034C158.318 109.423 157.118 105.733 154.757 102.766C152.397 99.7985 148.637 97.4952 144.678 97.701L144.897 98.3647C144.678 98.5003 144.498 98.69 144.373 98.9157C141.058 103.801 135.269 106.755 129.527 107.598C121.888 108.72 113.792 106.171 108.541 100.429C108.243 100.017 107.799 99.7344 107.301 99.6392L107.413 99.3405C101.446 100.9 97.9843 106.124 95.1662 110.924C88.5354 122.208 82.1565 133.811 79.7429 146.283C79.1793 149.204 79.0798 152.722 81.8316 154.514C83.6485 155.696 85.8101 155.656 87.985 155.178L87.7065 155.975C87.5533 156.304 87.5114 156.675 87.5872 157.03C87.8126 157.694 88.6746 157.793 89.3709 157.787L156.137 156.97C156.736 157.024 157.338 156.892 157.861 156.592C158.09 156.395 158.276 156.152 158.406 155.879C158.536 155.605 158.608 155.308 158.616 155.005C160.434 154.147 161.885 152.666 162.708 150.83C163.802 148.387 163.895 145.646 163.868 142.991ZM157.609 137.993L157.496 137.82C157.496 137.714 157.496 137.608 157.449 137.495L157.609 137.993Z" fill="#2E454F"/>
<path d="M157.602 138.099L146.734 120.409C145.866 119.002 144.871 117.488 143.306 116.991C141.741 116.493 140.031 117.183 138.559 117.94C137.111 118.64 135.771 119.546 134.58 120.628C133.348 121.708 132.495 123.155 132.147 124.757C131.938 126.455 132.195 128.178 132.889 129.742C135.542 136.539 141.403 141.424 145.713 147.292C147.417 149.609 148.929 152.151 151.184 153.93C153.438 155.709 156.734 156.552 159.141 155.039" stroke="white" stroke-miterlimit="10" stroke-linecap="round"/>
<path d="M91.6525 136.519L103.86 124.385C105.949 122.314 108.21 120.143 111.101 119.546C112.099 119.337 113.13 119.338 114.127 119.549C115.125 119.761 116.068 120.178 116.896 120.774C117.715 121.391 118.376 122.195 118.823 123.118C119.27 124.042 119.492 125.058 119.469 126.084C119.313 127.702 118.794 129.263 117.95 130.651C111.412 143.017 101.645 151.972 88.0122 155.517" stroke="white" stroke-miterlimit="10" stroke-linecap="round"/>
<path fill-rule="evenodd" clip-rule="evenodd" d="M108.362 97.4487C108.362 100.841 108.76 104.319 110.458 107.372C112.785 111.541 117.592 114.568 122.857 115.285C125.456 115.632 128.099 115.454 130.628 114.762C133.158 114.07 135.523 112.878 137.584 111.255C139.706 109.467 141.382 107.208 142.479 104.658C143.576 102.109 144.063 99.3376 143.903 96.5659C143.651 91.1826 141.291 85.9984 138.055 81.3984C136.347 78.7989 134.138 76.567 131.557 74.8336C128.768 73.0101 125.413 72.2623 122.115 72.7294C117.884 73.4595 116.24 76.6523 113.925 79.3672C111.314 82.5768 109.595 86.4186 108.939 90.5055C108.532 92.797 108.339 95.1214 108.362 97.4487V97.4487Z" fill="#FFE4CF"/>
<path fill-rule="evenodd" clip-rule="evenodd" d="M123.447 120.967C123.526 120.134 123.423 119.294 123.144 118.505C122.866 117.716 122.419 116.998 121.835 116.4C119.535 114.296 115.602 115.205 113.136 113.287C111.365 111.919 110.848 109.49 109.542 107.671C109.416 107.492 109.224 107.299 109.011 107.352C108.799 107.405 108.746 107.571 108.68 107.737C108.162 109.082 107.918 110.518 107.962 111.959C108.007 113.4 108.339 114.817 108.939 116.128C110.149 118.747 112.123 120.938 114.601 122.414C116.454 123.563 118.498 124.37 120.635 124.797C122.983 125.195 123.341 122.892 123.447 120.967Z" fill="#FFE4CF"/>
<path fill-rule="evenodd" clip-rule="evenodd" d="M130.018 117.21C130.928 115.925 132.183 114.926 133.638 114.329C135.084 113.735 136.485 113.036 137.829 112.238C140.083 110.704 141.535 108.255 142.908 105.912C143.139 105.445 143.462 105.03 143.856 104.691C144.056 104.525 144.3 104.421 144.558 104.393C144.817 104.364 145.077 104.413 145.308 104.531C145.971 104.923 145.918 105.859 145.779 106.589C145.442 108.339 144.988 110.064 144.42 111.753C143.472 114.674 142.305 117.588 140.368 119.971C138.806 121.982 136.628 123.425 134.169 124.08C133.24 124.299 131.888 124.571 131.012 124.033C130.25 123.569 129.878 122.4 129.607 121.604C129.35 120.886 129.253 120.12 129.324 119.361C129.395 118.602 129.632 117.867 130.018 117.21Z" fill="#FFE4CF"/>
<path fill-rule="evenodd" clip-rule="evenodd" d="M121.916 65.5273C101.427 68.6405 101.506 85.8922 103.602 95.0192C104.082 97.7779 104.988 100.445 106.287 102.925C123.739 91.8596 122.963 76.6656 122.963 76.6656C122.963 76.6656 127.234 96.984 146.006 101.511C148.724 98.9754 151.635 61.0335 121.916 65.5273Z" fill="#2E454F"/>
<path fill-rule="evenodd" clip-rule="evenodd" d="M124.806 64.5317C124.806 64.5317 124.627 49.7492 114.701 53.5593C104.775 57.3694 112.5 67.824 112.5 67.824C112.5 67.824 118.275 64.3524 124.806 64.5317Z" fill="#2E454F"/>
<path d="M217 154H36C34.8954 154 34 154.895 34 156V162C34 163.105 34.8954 164 36 164H217C218.105 164 219 163.105 219 162V156C219 154.895 218.105 154 217 154Z" fill="#3B5E62"/>
</svg>
